<?xml version="1.0" encoding="UTF-8"?> <svg xmlns="http://www.w3.org/2000/svg" width="1500" height="90" viewBox="0 0 1500 90" fill="none"><path d="M715.079 25.4363C715.159 25.565 715.998 25.5407 716.193 25.5302C718.075 25.4328 720.068 24.8936 721.953 24.7788C724.917 24.6014 727.864 25.2032 730.762 25.6972C730.24 28.0211 730.567 30.5676 731.054 32.8775C731.666 35.7963 732.748 38.5028 734.269 41.0598C731.906 40.7467 729.572 40.0161 727.189 40.618C725.262 41.105 723.849 42.0478 721.706 42.1487C719.564 42.2495 718.781 41.7729 716.958 40.9589C715.486 40.3049 713.896 40.7676 712.394 41.0598C711.747 37.5288 711.19 34.0534 709.708 30.7589C709.044 29.2804 708.209 27.8819 707.395 26.4869C708.609 25.5372 709.91 24.8449 711.392 24.4031C712.143 24.1804 714.578 23.509 715.152 24.0656C715.608 24.5074 714.846 25.0675 715.076 25.4363H715.079ZM719.811 27.0574C715.438 27.4366 713.215 32.3418 715.222 36.1059C717.49 40.3605 723.561 40.4475 725.732 36.0676C727.812 31.8756 724.545 26.6469 719.811 27.0574Z" fill="#03031C" fill-opacity="0.6"></path><path d="M696.366 59.2612C696.819 59.609 697.09 59.9674 697.403 60.437C698.207 61.6407 698.875 63.0496 699.64 64.295C700.026 64.9247 700.433 65.8536 701.164 66.111C701.359 66.1806 703.018 66.358 702.343 66.8659C702.023 67.106 700.249 66.852 699.748 66.852C698.937 66.852 698.259 67.2764 697.668 66.518C696.377 64.8656 695.504 61.9816 694.234 60.2665C693.9 59.8143 693.462 59.6682 692.905 59.6717C692.411 59.6717 692.324 59.7621 692.279 60.2213C692.188 61.1328 692.16 64.6951 692.383 65.457C692.707 66.5667 693.83 65.9579 694.331 66.3476C694.481 66.4658 694.495 66.6746 694.373 66.8207L687.555 66.859C687.346 65.8327 688.828 66.4519 689.391 65.8466C689.621 65.5996 689.673 64.6882 689.694 64.3124C689.847 61.3519 689.871 57.32 689.694 54.3699C689.656 53.7159 689.68 53.0758 688.998 52.8114C688.546 52.634 687.509 52.8044 687.509 52.2861C687.509 51.6042 689.176 51.9869 689.642 51.9973C691.753 52.0391 694.683 51.6321 696.634 52.1017C700.941 53.1419 700.645 58.6141 696.366 59.2577V59.2612ZM693.26 52.6061C692.568 52.6687 692.366 52.961 692.286 53.6359C692.098 55.1735 692.39 57.0451 692.296 58.6176C692.446 59.2959 693.942 59.0837 694.47 58.9898C696.352 58.6558 697.073 57.3408 696.846 55.4866C696.62 53.6324 695.058 52.4426 693.263 52.6061H693.26Z" fill="#03031C" fill-opacity="0.6"></path><path d="M720.83 62.8514V54.1264C720.83 54.0916 720.729 53.5663 720.708 53.4968C720.378 52.3974 719.139 52.9506 718.576 52.6236C718.412 52.5296 718.374 52.1818 718.548 52.0739C718.909 51.8443 720.955 52.0843 721.543 52.0843C722.267 52.0843 723.129 51.9 723.881 51.9939C724.326 52.0496 724.323 52.5923 723.839 52.7071C722.941 52.9227 722.075 52.5505 721.926 53.7994V66.9877C721.894 67.76 721.108 67.433 720.788 67.026L710.352 54.2517C710.386 57.2574 710.164 60.3988 710.306 63.3975C710.331 63.895 710.379 64.7473 710.501 65.2065C710.898 66.7303 712.408 65.8675 712.825 66.3928C712.933 66.5285 712.902 66.7755 712.759 66.866C712.435 67.0712 710.278 66.8312 709.68 66.8555C709.197 66.8729 707.301 67.2208 707.047 66.9077C706.535 66.2815 708.129 66.2432 708.456 66.1284C708.87 65.9823 709.068 65.8014 709.207 65.377C709.35 61.3485 709.412 57.2643 709.186 53.2463C708.877 52.2861 707.516 52.9297 707.134 52.4601C706.587 51.7921 708.581 51.9 708.856 51.9069C709.343 51.9208 709.83 52.0043 710.358 51.9974C710.978 51.9904 711.625 51.6878 712.192 52.1574L720.583 62.6357L720.83 62.8479V62.8514Z" fill="#03031C" fill-opacity="0.6"></path><path d="M681.074 66.3685C681.108 66.4241 681.108 66.7929 681.074 66.8451C680.987 66.9912 679.265 66.9495 678.951 66.9425C678.043 66.9251 677.278 66.9251 676.37 66.9425C676.012 66.9495 674.533 66.9982 674.321 66.8973C674.088 66.7859 674.133 66.445 674.325 66.3163C675.08 65.8049 676.311 66.8173 675.74 64.8935C675.608 64.4482 674.606 61.7347 674.408 61.5503C674.297 61.4459 674.262 61.4459 674.116 61.425C673.392 61.3276 671.093 61.3416 670.352 61.425C670.174 61.4459 669.997 61.4737 669.91 61.6512C669.764 62.7818 668.696 64.5699 668.731 65.6414C668.758 66.4589 670.724 65.9893 670.887 66.4937C671.006 66.859 670.627 66.9181 670.359 66.9425C669.332 67.0364 668.16 66.8381 667.096 66.852C666.758 66.8555 665.245 67.0886 665.092 66.8625C664.605 66.1458 666.017 66.1841 666.389 66.0623C666.96 65.878 667.078 65.5823 667.353 65.1057C669.444 61.4842 670.769 56.4086 672.425 52.4775C672.634 51.98 673.017 51.1207 673.507 52.0217C673.851 52.6584 674.147 53.7716 674.453 54.4987C675.991 58.1793 677.556 61.8808 679.254 65.4779C679.501 65.7632 679.804 66.0276 680.169 66.1493C680.333 66.205 681.007 66.2537 681.077 66.3685H681.074ZM670.526 60.5136H673.782C673.841 60.5136 673.952 60.3292 673.893 60.2422L672.07 55.9215C671.956 55.932 671.938 56.0433 671.9 56.1268C671.545 56.8991 670.571 59.2682 670.439 60.0092C670.414 60.1483 670.334 60.4544 670.526 60.5136Z" fill="#03031C" fill-opacity="0.6"></path><path d="M776.672 66.3686C776.707 66.4243 776.707 66.793 776.672 66.8452C776.585 66.9913 774.863 66.9496 774.55 66.9426C773.642 66.9252 772.877 66.9252 771.969 66.9426C771.611 66.9496 770.132 66.9983 769.92 66.8974C769.725 66.8035 769.715 66.5182 769.857 66.3756C770.33 65.9059 771.698 66.6365 771.485 65.3319C771.381 64.6883 770.595 62.761 770.292 62.1001C770.153 61.7974 770.087 61.4739 769.715 61.4252C768.991 61.3278 766.692 61.3417 765.951 61.4252C765.773 61.446 765.596 61.4739 765.509 61.6513C765.418 62.594 764.218 64.8136 764.34 65.6276C764.469 66.4973 766.319 65.9755 766.486 66.4904C766.605 66.8556 766.225 66.9148 765.957 66.9391C764.931 67.0331 763.759 66.8348 762.694 66.8487C762.357 66.8522 760.844 67.0852 760.69 66.8591C760.214 66.1599 761.609 66.1842 761.988 66.059C762.559 65.8746 762.673 65.5789 762.952 65.1023C765.116 61.3556 766.26 56.3843 768.045 52.4115C768.274 51.9036 768.622 51.1695 769.102 52.0184C769.447 52.6272 769.749 53.7821 770.049 54.4953C771.583 58.1759 773.166 61.8739 774.849 65.4745C775.096 65.7598 775.399 66.0242 775.764 66.1459C775.928 66.2016 776.603 66.2503 776.672 66.3651V66.3686ZM766.124 60.5137H769.381C769.44 60.5137 769.551 60.3293 769.492 60.2424L767.627 55.9251C767.032 57.3619 766.427 58.8195 765.996 60.305C765.996 60.3815 766.062 60.4963 766.124 60.5172V60.5137Z" fill="#03031C" fill-opacity="0.6"></path><path d="M752.056 62.8515L755.375 54.6067C755.524 54.1683 755.764 53.6117 755.629 53.1421C755.437 52.488 753.708 52.9055 753.594 52.4185C753.409 51.6566 754.888 51.994 755.267 52.001C755.963 52.0114 756.669 52.0149 757.361 52.001C757.706 51.994 759.264 51.6357 759.059 52.3558C758.944 52.7489 757.973 52.6376 757.563 52.8672C757.152 53.0968 756.683 54.1509 756.471 54.6136C754.696 58.4369 753.347 62.5871 751.572 66.4138C751.297 67.0087 751.026 67.8089 750.483 66.807L744.562 53.2743C744.361 52.9194 744.055 52.7455 743.661 52.6724C743.209 52.5889 742.266 52.7455 742.743 51.9906L749.565 52.0323C749.962 53.1073 747.544 52.2097 747.735 53.3543C749.134 56.3043 750.289 59.3866 751.715 62.3227C751.802 62.5001 751.878 62.7576 752.063 62.8515H752.056Z" fill="#03031C" fill-opacity="0.6"></path><path d="M659.783 62.9491C659.88 63.1021 659.679 65.2347 659.592 65.5269C659.442 66.0348 658.558 66.4523 658.089 66.6123C653.024 68.3378 645.854 65.8713 645.433 59.8912C645.019 53.991 651.326 51.3471 656.332 51.8307C657.33 51.9281 659.181 52.0011 659.508 53.0796C659.595 53.3718 659.804 54.9964 659.679 55.1738C659.254 55.7792 658.242 54.085 658.005 53.831C655.967 51.6324 652.498 52.1612 650.616 54.2937C648.602 56.5758 648.334 60.1555 649.541 62.8795C651.03 66.247 655.219 68.0317 657.922 64.8555C658.245 64.4763 659.094 62.883 659.425 62.8482C659.498 62.8412 659.759 62.9038 659.786 62.9456L659.783 62.9491Z" fill="#03031C" fill-opacity="0.6"></path><path d="M781.403 66.9427C781.219 66.887 781.233 66.48 781.396 66.3513C781.824 66.0139 783.003 66.4661 783.285 65.5686C783.47 61.554 783.32 57.4942 783.362 53.4622C783.205 52.4672 781.647 52.8325 781.361 52.5403C781.24 52.4185 781.247 52.2237 781.32 52.0776C781.501 51.7158 782.843 51.9906 783.237 51.9976C784.649 52.0254 786.441 51.7958 787.752 51.9071C788.323 51.9558 788.483 52.3907 788.02 52.5994C787.397 52.8812 786.162 52.4846 786.128 53.7127C786.284 57.0906 785.887 60.7086 786.114 64.0587C786.19 65.165 786.395 66.0556 787.662 66.1843C789.053 66.3269 790.5 65.8225 791.461 64.8067C791.788 64.4623 792.209 63.5821 792.456 63.3804C792.849 63.0603 793.054 63.4082 793.05 63.7978C793.047 64.3231 792.803 65.8016 792.692 66.3722C792.661 66.5392 792.539 66.9357 792.337 66.9357H781.4L781.403 66.9427Z" fill="#03031C" fill-opacity="0.6"></path><path d="M729.572 51.9312C731.124 51.9695 732.679 52.0321 734.234 52.0008C734.641 51.9938 736.043 51.6877 736.178 52.1399C736.387 52.8461 735.33 52.6687 734.916 52.7661C734.599 52.8426 734.227 53.0827 734.143 53.4132L734.112 65.2204C734.296 66.5702 735.583 65.944 736.074 66.3475C736.217 66.4658 736.262 66.7998 736.116 66.9007C736.008 66.9772 734.355 66.9459 734.063 66.9424C733.402 66.9285 732.738 66.8485 732.059 66.852C731.315 66.8554 730.397 67.0468 729.638 66.9424C729.36 66.9041 729.155 66.7267 729.304 66.438C729.475 66.1075 730.654 66.2953 731.064 65.9405C731.332 65.7109 731.416 65.0777 731.44 64.7299C731.701 61.2928 731.249 57.5217 731.426 54.0498C731.322 53.6602 731.395 53.2879 731.061 52.9957C730.644 52.627 730.08 52.8044 729.579 52.6409C729.12 52.4878 729.123 52.0669 729.576 51.9312H729.572Z" fill="#03031C" fill-opacity="0.6"></path><path d="M706.549 23.9406C706.549 23.9406 706.302 23.9963 706.302 24.0694C706.302 24.1146 706.563 24.2433 706.636 24.3198C707.113 24.8451 707.241 25.5722 706.949 26.2193C706.761 26.6298 706.295 26.8037 706.316 27.2212L712.731 46.654L712.234 46.734L705.801 27.1168C704.5 27.4056 703.523 25.9271 704.131 24.779L703.714 24.8625L703.797 19.1016L706.549 23.9406ZM705.05 24.0276C705.227 23.9406 705.979 23.798 705.958 23.5823L704.483 20.7123L704.215 20.5209L705.05 24.0276ZM706.052 26.4489C706.942 26.0906 706.89 24.953 706.26 24.3616C706.1 25.0643 706.292 25.7322 706.052 26.4489Z" fill="#03031C" fill-opacity="0.6"></path><path d="M761.699 77.2121C761.188 77.066 761.981 76.8468 762.054 76.812C762.329 76.6937 761.751 76.2171 761.612 76.2032C761.431 76.1858 760.906 76.6485 760.683 76.7772C760.228 77.0346 759.713 77.2364 759.188 77.2851C757.869 77.4034 756.502 76.7772 756.738 75.257C756.864 74.4603 758.14 73.8724 758.819 73.6219C758.885 73.5314 758.252 72.8531 758.189 72.6235C757.594 70.3796 761.991 70.1952 762.235 71.8338C762.395 72.9157 761.24 73.0583 760.489 73.3297C760.788 73.5662 761.957 74.9056 762.211 74.9508C762.399 74.9856 763.122 74.0428 763.07 73.8376C763.014 73.6115 761.776 73.6289 762.242 73.3262C762.513 73.1523 763.453 73.3714 763.79 73.3784C763.999 73.3784 764.938 73.1209 765.001 73.4132C765.049 73.6497 764.357 73.6741 764.166 73.7471C763.891 73.8515 762.576 75.0447 762.576 75.25C763.025 75.8727 763.734 76.5198 764.454 76.7981C764.621 76.8642 764.903 76.8537 765.004 76.9164C765.171 77.0242 765.018 77.2086 764.962 77.2086H761.706L761.699 77.2121ZM760.878 71.3119C760.109 70.5779 758.631 71.3154 759.695 72.62C760.054 73.0583 760.276 73.2984 760.784 72.8705C761.233 72.4913 761.317 71.7294 760.882 71.3119H760.878ZM758.711 73.8863C758.534 73.9246 758.043 74.3838 757.942 74.5438C757.278 75.6222 758.346 76.6485 759.438 76.6311C759.786 76.6241 761.094 76.2136 760.979 75.7683C760.913 75.5109 759.327 74.3525 759.114 73.9524C758.993 73.848 758.857 73.8585 758.711 73.8863Z" fill="#03031C" fill-opacity="0.6"></path><path d="M667.144 77.2124C667.123 76.5619 668.049 77.1846 668.15 76.4227C667.983 74.9407 668.362 73.01 668.139 71.5802C668.059 71.0688 667.558 71.1696 667.144 71.114C667.095 70.5226 667.962 70.8566 668.351 70.867C669.708 70.9053 672.947 70.2443 673.055 72.349C673.103 73.3022 672.463 73.6327 671.695 73.8658C671.399 73.9562 671.736 74.1232 671.858 74.2902C672.206 74.7737 673.316 76.6975 673.74 76.8332C674.011 76.9202 674.394 76.7567 674.328 77.2054H672.199L670.366 74.3632C670.258 74.1023 669.485 74.0188 669.485 74.2415V76.4958C669.485 77.035 670.623 76.6558 670.487 77.2054H667.148L667.144 77.2124ZM669.586 71.2218C669.381 71.3993 669.499 73.3196 669.52 73.7127C670.647 74.0014 671.868 73.6675 671.635 72.2655C671.503 71.4793 670.143 70.7452 669.59 71.2218H669.586Z" fill="#03031C" fill-opacity="0.6"></path><path d="M698.078 77.2118C697.977 77.184 697.89 77.0066 698.033 76.9162C698.21 76.8048 698.75 76.9683 698.913 76.6274L698.951 71.4961C698.878 71.1065 698.263 71.1552 697.953 71.1169C697.904 70.5255 698.771 70.8595 699.16 70.8699C700.524 70.9082 703.624 70.2542 703.86 72.2684C703.975 73.246 703.297 73.6321 702.5 73.8722C702.204 73.9626 702.542 74.1296 702.663 74.2966C703.011 74.7801 704.121 76.7039 704.545 76.8396C704.817 76.9266 705.199 76.7631 705.133 77.2118H703.004L701.101 74.2305C700.983 74.0878 700.291 74.067 700.291 74.2479V76.5022C700.291 77.0414 701.428 76.6622 701.293 77.2118H698.078ZM700.395 71.2213C700.19 71.3987 700.308 73.319 700.329 73.7121C701.456 74.0009 702.677 73.6669 702.444 72.2649C702.312 71.4787 700.952 70.7447 700.399 71.2213H700.395Z" fill="#03031C" fill-opacity="0.6"></path><path d="M745.21 77.212C745.116 76.6519 745.937 77.0207 746.17 76.7111C746.521 76.2414 746.18 72.3451 746.278 71.5137C746.361 71.051 744.97 71.2041 745.21 70.8701C745.345 70.6857 746.1 70.8701 746.333 70.8701C746.706 70.8701 747.408 70.724 747.666 70.8771L751.851 75.4587C751.875 74.4568 751.959 73.4096 751.896 72.4077C751.837 71.4719 751.865 71.0684 750.769 71.1171C750.595 70.5431 751.378 70.8631 751.68 70.8701C751.983 70.877 753.336 70.7205 753.441 70.8631C753.729 71.2562 752.818 71.1588 752.578 71.2562C752.505 71.2876 752.393 71.4371 752.393 71.4928V77.379L752.035 77.3616L746.799 71.8685V76.0849C746.799 76.144 746.956 76.6554 747.008 76.7111C747.248 76.9685 747.784 76.798 747.972 76.9163C748.135 77.0207 747.986 77.212 747.927 77.212H745.213H745.21Z" fill="#03031C" fill-opacity="0.6"></path><path d="M736.926 70.8075C738.475 70.6232 740.169 70.9154 741.205 72.1608C743.954 75.4588 738.224 79.0837 734.818 76.2937C732.373 74.2899 734.136 71.1415 736.926 70.8075ZM737.427 71.058C733.91 71.3955 734.756 77.3686 738.231 76.9547C741.296 76.5859 741.08 70.7067 737.427 71.058Z" fill="#03031C" fill-opacity="0.6"></path><path d="M658.945 70.8074C659.87 70.7031 660.827 70.7553 661.693 71.1031C666.08 72.86 663.213 78.2383 658.576 77.1424C654.384 76.1509 654.916 71.2632 658.945 70.8074ZM659.362 71.0579C656.109 71.371 656.642 76.6867 659.592 76.9615C663.297 77.3059 663.324 70.6752 659.362 71.0579Z" fill="#03031C" fill-opacity="0.6"></path><path d="M687.294 71.98C689.03 70.1571 693.403 70.3345 694.432 72.8393C695.462 75.3441 692.693 77.4175 690.31 77.2957C687.544 77.1565 685.018 74.3665 687.294 71.98ZM690.171 71.0581C686.911 71.3677 687.457 76.6904 690.4 76.9617C694.102 77.3061 694.147 70.6824 690.171 71.0581Z" fill="#03031C" fill-opacity="0.6"></path><path d="M679.418 74.2063V76.5858C679.418 76.8746 680.312 76.8467 680.423 76.9163C680.586 77.0172 680.437 77.212 680.378 77.212H677.08C677.08 77.212 677.09 76.9372 677.08 76.878C677.671 76.878 678.026 76.9267 678.085 76.2553C678.221 74.7559 677.991 73.0304 678.061 71.5102C678.071 71.0162 676.774 71.3362 677.118 70.8631C677.271 70.6509 678.096 70.8631 678.37 70.8701C679.762 70.9083 682.048 70.3691 682.962 71.705C683.877 73.0443 682.576 74.3419 681.213 74.4533C680.552 74.5089 680.054 74.2515 679.418 74.2028V74.2063ZM679.418 73.8723C680.468 74.1367 681.846 73.9036 681.846 72.5782C681.846 71.5937 680.872 71.0092 679.957 71.1136C679.818 71.131 679.418 71.2771 679.418 71.4093V73.8723Z" fill="#03031C" fill-opacity="0.6"></path><path d="M770.257 74.2065V76.586C770.257 76.8748 771.151 76.8469 771.262 76.9165C771.426 77.0174 771.276 77.2122 771.217 77.2122H767.961C767.902 77.2122 767.752 77.0209 767.916 76.9165C768.229 76.7217 768.82 77.0939 768.911 76.3251C769.036 75.2849 769.022 72.8845 768.925 71.82C768.834 70.8285 767.742 71.3399 767.836 70.9085C767.895 70.6268 768.963 70.8633 769.21 70.8703C770.65 70.9085 773.305 70.3032 773.955 72.0531C774.543 73.636 772.856 74.5683 771.478 74.4465C771.064 74.4117 770.685 74.1821 770.257 74.2065ZM770.174 71.66C770.09 72.2131 770.174 73.142 770.174 73.7473C770.174 74.0047 771.262 73.9769 771.461 73.949C772.915 73.7473 773.127 71.8443 771.805 71.2843C771.249 71.0477 770.292 70.8842 770.174 71.6634V71.66Z" fill="#03031C" fill-opacity="0.6"></path><path d="M715.152 77.212H711.813C711.681 76.6693 712.641 77.0346 712.648 76.5893C712.648 76.4989 712.004 75.0169 711.938 74.9578C711.74 74.7803 710.15 74.8812 709.798 74.9264C709.722 75.2848 709.096 76.4432 709.263 76.7111C709.471 77.052 710.32 76.6276 710.226 77.212H707.513C707.457 77.212 707.304 77.0277 707.471 76.9198C707.753 76.7354 708.097 76.9964 708.459 76.4885C709.496 75.0413 710.112 72.5365 711.016 70.9467C711.173 70.6753 711.308 70.5501 711.496 70.891C712.467 72.5086 713.121 74.8951 714.164 76.405C714.258 76.5406 714.443 76.7528 714.589 76.8155C714.85 76.9268 715.219 76.7876 715.152 77.212ZM711.646 74.4568C711.437 73.8306 711.141 73.0653 710.727 72.5365C710.571 73.1975 710.052 73.768 710.059 74.4568H711.646Z" fill="#03031C" fill-opacity="0.6"></path><path d="M652.115 72.2862C651.942 72.4636 651.239 71.573 651.072 71.4512C650.028 70.6894 648.362 71.0755 647.572 72.0426C645.346 74.7701 648.971 78.7638 651.364 76.1686C651.489 76.0329 651.938 75.2014 652.195 75.4554C652.237 75.4971 652.136 76.5408 652.098 76.6521C651.928 77.1461 649.719 77.3201 649.231 77.2922C647.099 77.167 644.532 75.4797 645.415 73.0619C646.194 70.9294 649.534 70.4111 651.461 70.8877C652.269 71.086 652.067 71.5765 652.109 72.2862H652.115Z" fill="#03031C" fill-opacity="0.6"></path><path d="M719.034 77.212C718.934 77.1842 718.847 77.0067 718.989 76.9163C719.188 76.791 719.842 76.958 719.908 76.4988L719.897 71.3362C719.768 70.9431 718.387 71.3362 718.071 71.5728C717.869 71.7259 717.305 72.6025 717.072 72.3694C716.982 72.279 717.431 70.8979 717.532 70.6996C717.855 70.0525 717.949 70.7205 718.043 70.79C718.113 70.8422 718.269 70.8561 718.363 70.8666C719.111 70.9396 722.962 70.9535 723.477 70.7274C723.633 70.6578 723.686 70.3274 723.874 70.3656C724.183 70.4317 723.874 72.0598 723.915 72.3694C723.397 72.4668 723.508 71.9937 723.32 71.6702C722.966 71.0753 721.838 71.1379 721.247 71.2806V76.4988C721.247 76.9232 722.211 76.8363 722.249 76.8745C722.259 76.885 722.266 77.2085 722.249 77.2085H719.034V77.212Z" fill="#03031C" fill-opacity="0.6"></path><path d="M792.48 75.473C792.619 75.3929 792.877 75.459 792.88 75.6573C792.88 75.7791 792.797 76.4366 792.762 76.5479C792.605 77.0663 791.085 77.2715 790.591 77.2994C788.326 77.4142 785.119 75.8487 786.034 73.1595C786.743 71.0757 789.426 70.6408 791.339 70.7835C792.292 70.8565 792.8 70.9052 792.804 71.9976C792.804 72.7943 791.955 71.6184 791.742 71.4653C790.372 70.4739 788.424 71.2844 787.804 72.756C786.622 75.5599 789.843 78.3674 791.889 76.3392C792.049 76.1792 792.438 75.5008 792.483 75.473H792.48Z" fill="#03031C" fill-opacity="0.6"></path><path d="M777.187 77.2121C777.187 77.2121 777.177 76.8921 777.187 76.8782C777.33 76.7355 778.095 77.1669 778.189 76.252C778.283 75.3371 778.321 72.4914 778.186 71.6634C778.071 70.9572 777.295 71.2807 777.187 71.1137C776.825 70.5467 778.676 70.8702 778.899 70.8702C779.121 70.8702 780.885 70.5502 780.527 71.1137C780.412 71.2981 779.619 70.9676 779.532 71.5799C779.403 72.5157 779.431 75.0309 779.521 76.005C779.612 76.9791 780.322 76.913 781.132 76.7738C781.845 76.6521 782.026 76.1337 782.444 75.7476C783.119 75.1283 782.732 76.9791 782.569 77.2087H777.184L777.187 77.2121Z" fill="#03031C" fill-opacity="0.6"></path><path d="M727.133 77.2121C727.032 77.1842 726.945 77.0138 727.091 76.9198C727.328 76.7668 728.034 76.9477 728.013 76.4224C727.864 74.9125 728.205 73.0479 728.003 71.5798C727.919 70.9675 727.126 71.298 727.008 71.1136C726.653 70.5535 728.344 70.8666 728.549 70.8666C728.89 70.8701 730.233 70.6336 730.348 70.9049C730.501 71.2667 729.784 71.1519 729.596 71.2389C729.499 71.2841 729.388 71.4824 729.363 71.5902C729.408 73.0548 729.245 74.6342 729.342 76.0849C729.422 77.2782 730.149 76.6763 730.348 76.8746C730.358 76.885 730.365 77.2086 730.348 77.2086H727.133V77.2121Z" fill="#03031C" fill-opacity="0.6"></path><path d="M794.331 77.0174C793.593 76.2103 795.013 75.2884 795.479 76.0781C795.945 76.8678 794.894 77.6367 794.331 77.0174ZM794.637 77.0453C795.162 77.1322 795.535 76.8365 795.35 76.2903C795.089 75.5041 793.788 76.3391 794.55 76.8783V76.1268C795.347 76.0399 795.034 76.3391 795.134 76.8783L794.717 76.6278L794.634 77.0453H794.637Z" fill="#03031C" fill-opacity="0.6"></path><path d="M720.231 27.8056C725.62 27.6526 726.194 38.0543 721.205 38.5553C715.246 39.1536 714.731 27.9622 720.231 27.8056Z" fill="#03031C" fill-opacity="0.6"></path><path d="M523.368 62.0325C522.8 61.2919 523.034 60.8957 523.357 60.2584C525.487 56.0246 523.523 51.505 518.995 50.0995C517.884 49.755 516.745 49.6516 515.603 49.6447C511.133 49.6241 506.664 49.6826 502.198 49.6068C500.925 49.5862 500.698 50.0684 500.722 51.2018C500.784 54.6432 500.743 58.0847 500.743 61.5261C500.743 65.1398 500.739 68.7535 500.746 72.3637C500.746 72.97 500.571 73.6865 501.589 73.6762C507.259 73.628 512.953 73.9173 518.589 73.466C524.427 72.9975 526.918 66.6831 523.368 62.0325ZM508.949 54.5537C511.068 54.5537 513.187 54.5468 515.303 54.5606C515.929 54.5606 516.573 54.5606 517.182 54.6811C518.331 54.9119 519.236 55.4803 519.263 56.8135C519.294 58.2052 518.455 58.8977 517.192 59.125C515.265 59.4799 513.308 59.2215 511.698 59.3007C509.822 59.3007 508.274 59.2697 506.733 59.3111C505.924 59.3317 505.673 59.032 505.622 58.219C505.394 54.5537 505.367 54.5537 508.949 54.5537ZM517.543 68.7293C513.879 68.8086 510.215 68.7672 506.55 68.7914C505.89 68.7982 505.594 68.5399 505.646 67.8819C505.649 67.8268 505.649 67.7682 505.646 67.7097C505.478 65.3832 506.578 64.22 508.945 64.22H512.21V64.251C513.985 64.251 515.761 64.1924 517.533 64.2717C518.902 64.3302 520.027 64.8607 520.037 66.4971C520.048 68.1506 518.899 68.7018 517.543 68.7293Z" fill="#03031C" fill-opacity="0.6"></path><path d="M517.529 33.2199C519.535 33.2199 521.544 33.2957 523.543 33.1923C524.802 33.1269 525.074 33.6195 525.06 34.7735C524.999 40.213 521.912 44.3985 516.549 45.9418C512.392 47.1372 508.164 47.1441 503.991 46.0038C498.451 44.4915 495.276 40.3129 495.255 34.6874C495.234 28.9861 498.29 24.8075 503.86 23.2918C508.487 22.0344 513.16 22.0792 517.725 23.6982C520.354 24.6318 522.384 26.3439 523.705 28.8483C524.138 29.6682 524.29 30.2022 523.003 30.1505C520.88 30.0644 518.96 29.9955 516.865 28.8483C512.599 26.5127 507.896 26.7435 503.444 28.7174C501.046 29.7819 500.216 31.9832 500.196 34.522C500.175 37.1264 500.994 39.3828 503.444 40.5058C507.889 42.5417 512.434 42.4832 516.91 40.5024C518.152 39.9512 518.984 38.9143 519.562 37.6776C519.975 36.7922 519.759 36.4615 518.75 36.4822C516.346 36.5304 513.934 36.4133 511.532 36.5304C510.132 36.5993 510.111 35.8966 510.122 34.8631C510.132 33.8606 510.084 33.0959 511.515 33.1889C513.511 33.3163 515.523 33.2199 517.529 33.2199Z" fill="#03031C" fill-opacity="0.6"></path><path d="M573.421 28.021C570.348 27.5869 567.389 27.9624 564.276 29.2164V25.8817C564.276 22.2302 564.276 22.2681 560.629 22.3576C559.648 22.3817 559.359 22.6814 559.366 23.646C559.397 30.8079 559.38 37.9732 559.39 45.1351C559.39 45.5141 559.246 45.9481 559.627 46.2513C559.886 46.458 564.111 46.427 564.152 46.1824C564.369 44.8458 565.119 45.6105 565.614 45.8138C568.191 46.8507 570.871 46.9782 573.558 46.6095C579.177 45.8413 582.307 42.3792 582.259 37.1534C582.211 32.0412 579.06 28.8168 573.421 28.021ZM574.725 41.2872C573.479 41.7764 572.175 41.9039 570.713 41.8901C569.756 41.9383 568.68 41.7867 567.627 41.5042C565.411 40.9048 564.344 39.5131 564.348 37.2877C564.351 35.0968 565.297 33.7946 567.506 33.1883C569.87 32.5407 572.268 32.5476 574.608 33.2951C576.507 33.9048 577.353 35.1691 577.388 37.1568C577.422 39.2892 576.62 40.5431 574.725 41.2872Z" fill="#03031C" fill-opacity="0.6"></path><path d="M607.303 37.1985V30.8324C607.303 27.8974 607.303 27.8698 604.31 27.9249C603.694 27.9353 602.724 27.484 602.517 28.3418C602.287 29.2857 601.926 29.0583 601.351 28.8378C598.433 27.7217 595.433 27.6252 592.388 28.1351C587.482 28.9584 584.434 32.3826 584.341 37.1744C584.255 41.856 587.145 45.387 591.962 46.3895C595.106 47.0406 598.22 46.9613 601.241 45.7246C601.551 45.6006 602.142 45.4042 602.177 45.4697C603.157 47.2679 604.805 46.0312 606.095 46.3516C607.076 46.5927 607.344 46.0691 607.324 45.1149C607.265 42.4761 607.303 39.8373 607.303 37.1985ZM599.531 41.3324C598.334 41.7733 597.088 41.9111 595.726 41.887C594.669 41.9387 593.534 41.7906 592.433 41.4736C590.314 40.8604 589.295 39.4963 589.285 37.3363C589.275 35.0937 590.169 33.8226 592.385 33.2025C594.742 32.5411 597.14 32.5445 599.483 33.2817C601.44 33.9018 602.335 35.235 602.342 37.2812C602.349 39.3171 601.444 40.6331 599.531 41.3324Z" fill="#03031C" fill-opacity="0.6"></path><path d="M581.919 65.7976C582.941 65.8251 583.302 65.5461 583.298 64.4644C583.285 60.551 581.131 57.3576 577.391 56.0486C574.339 54.9841 571.198 54.9256 568.067 55.5973C563.144 56.6514 560.505 59.8448 560.495 64.6022C560.481 69.3561 563.127 72.6081 567.985 73.7036C570.882 74.3546 573.799 74.303 576.662 73.4934C579.122 72.7976 581.107 71.3955 582.29 69.0461C582.483 68.6672 583.04 67.8886 582.146 67.8886C580.291 67.8886 578.375 67.3719 576.569 68.2331C573.778 69.5697 570.912 69.4733 568.033 68.6224C567.138 68.3606 566.402 67.7887 565.91 66.9619C565.411 66.1352 565.549 65.7252 566.619 65.739C569.196 65.7735 571.776 65.7494 574.353 65.7494V65.7769C576.875 65.7769 579.397 65.7356 581.919 65.7976ZM566.075 62.3975C568.016 59.2041 575.791 59.2075 577.67 62.3975H566.075Z" fill="#03031C" fill-opacity="0.6"></path><path d="M551.442 28.779C548.119 27.5561 544.706 27.5182 541.31 28.4208C536.81 29.6127 534.353 32.8853 534.398 37.4532C534.443 41.9075 537.113 45.2145 541.578 46.3203C542.975 46.6648 544.396 46.813 545.838 46.7406C547.806 46.813 549.719 46.5477 551.559 45.8208C555.23 44.3705 557.254 41.3115 557.233 37.25C557.209 33.1644 555.186 30.1501 551.442 28.779ZM549.557 41.3356C548.363 41.7731 547.114 41.9109 545.762 41.8868C544.692 41.9385 543.557 41.7903 542.456 41.47C540.357 40.8602 539.287 39.4409 539.273 37.3327C539.26 35.1624 540.23 33.812 542.411 33.2023C544.771 32.5408 547.169 32.5408 549.512 33.2815C551.494 33.9085 552.316 35.1727 552.32 37.2844C552.323 39.3996 551.494 40.626 549.557 41.3356Z" fill="#03031C" fill-opacity="0.6"></path><path d="M558.337 64.4612C558.337 66.9829 558.248 69.5114 558.371 72.0296C558.44 73.4592 557.9 73.8967 556.62 73.6728C555.437 73.4661 554.026 74.286 553.066 72.8908C553.001 72.7978 552.347 73.0941 551.976 73.2284C548.741 74.3963 545.456 74.4204 542.177 73.5213C538.004 72.3776 535.544 69.1497 535.475 64.8161C535.43 62.0636 535.502 59.3111 535.447 56.5587C535.427 55.6079 535.681 55.291 536.679 55.2703C540.364 55.1911 540.364 55.1497 540.364 58.8978C540.364 60.789 540.34 62.6837 540.371 64.5749C540.412 66.9484 541.324 68.1645 543.615 68.8121C545.865 69.446 548.15 69.4391 550.389 68.7604C552.481 68.1266 553.365 66.9071 553.39 64.7093C553.417 62.0154 553.441 59.318 553.376 56.6241C553.348 55.5769 553.658 55.2669 554.718 55.2565C558.344 55.2221 558.344 55.1773 558.344 58.791V64.4681L558.337 64.4612Z" fill="#03031C" fill-opacity="0.6"></path><path d="M527.204 34.3184C527.204 30.7668 527.232 27.2117 527.187 23.66C527.173 22.7023 527.448 22.3854 528.436 22.3578C532.11 22.251 532.107 22.2097 532.107 25.8647C532.107 32.1688 532.069 38.473 532.138 44.7736C532.152 46.0517 531.838 46.4306 530.531 46.3996C527.208 46.3238 527.208 46.3927 527.208 43.0822C527.208 40.161 527.208 37.2363 527.208 34.315L527.204 34.3184Z" fill="#03031C" fill-opacity="0.6"></path><path d="M610.651 34.2392C610.651 30.8046 610.692 27.3666 610.626 23.9321C610.606 22.7849 610.864 22.3371 612.12 22.3509C615.519 22.3853 615.519 22.3233 615.519 25.7785C615.519 32.1343 615.491 38.4901 615.546 44.8459C615.557 46.0206 615.282 46.4133 614.046 46.3996C610.654 46.3548 610.651 46.4168 610.651 42.9995C610.651 40.0782 610.651 37.1604 610.651 34.2392Z" fill="#03031C" fill-opacity="0.6"></path><path d="M532.127 61.8327C532.127 65.3327 532.093 68.8327 532.148 72.3327C532.165 73.3627 531.9 73.7003 530.817 73.7072C527.218 73.7347 527.218 73.783 527.218 70.128C527.218 63.8755 527.256 57.6196 527.187 51.3672C527.173 50.0857 527.496 49.7067 528.8 49.7343C532.121 49.8032 532.124 49.7343 532.124 53.0552C532.124 55.9799 532.124 58.908 532.124 61.8327H532.127Z" fill="#03031C" fill-opacity="0.6"></path><path d="M1197.03 30.083C1199.36 30.083 1201.21 31.9166 1201.21 34.2725V62.2051C1201.21 64.5765 1199.36 66.3983 1197.03 66.3983H1196.76C1164.11 64.4247 1131.42 63.4356 1098.74 63.4356C1066.05 63.4356 1033.36 64.4246 1000.71 66.3983H1000.44C998.123 66.3983 996.268 64.5765 996.268 62.2052V34.2725C996.268 31.9166 998.123 30.083 1000.44 30.083C1000.54 30.083 1000.62 30.0949 1000.71 30.0949C1033.36 32.0573 1066.05 33.0345 1098.74 33.0345C1131.42 33.0345 1164.11 32.0573 1196.76 30.0949C1196.85 30.0949 1196.94 30.083 1197.03 30.083Z" fill="#03031C" fill-opacity="0.25"></path><path d="M1103.77 40.5793C1099.28 40.5793 1096.68 43.383 1096.68 48.2464C1096.68 52.5486 1098.6 55.9085 1103.38 55.9085C1104.84 55.9085 1106.3 55.4884 1107.23 54.8771L1107.72 55.6284H1110.13V48.0435H1104.52V50.3962H1106.12V52.4321C1105.66 52.6424 1104.97 52.801 1104.35 52.801C1102.1 52.801 1101.02 51.1701 1101.02 48.0904C1101.02 45.2952 1102.03 43.6834 1103.54 43.6834C1104.73 43.6834 1105.29 44.4538 1105.6 45.8668L1109.85 45.144C1109.23 42.1577 1107.09 40.5793 1103.77 40.5793ZM1029.64 40.5811C1025.18 40.5811 1022.75 43.7297 1022.75 48.2464C1022.75 52.7782 1025.18 55.9085 1029.64 55.9085C1034.1 55.9085 1036.53 52.7782 1036.53 48.2464C1036.53 43.7297 1034.1 40.5811 1029.64 40.5811ZM1007.09 40.8561V43.7304H1008.59V55.6281H1013.52C1018.28 55.6281 1021.78 53.9891 1021.78 48.3903C1021.78 42.2659 1018.68 40.8557 1013.08 40.8557L1007.09 40.8561ZM1038.09 40.8561V55.6284H1048.19L1048.38 52.7591H1042.17V40.8562L1038.09 40.8561ZM1049.66 40.8561V55.6284H1059.77L1059.95 52.7591H1053.74V40.8562L1049.66 40.8561ZM1065.21 40.8561L1064.41 43.7304L1060.53 55.6281H1064.52L1065.32 52.9232H1070.24L1071.12 55.6281H1075.4L1070.07 40.8558L1065.21 40.8561ZM1076.61 40.8561L1076.62 55.6284H1080.7V50.7233H1081.8L1083.43 53.3661C1084.02 54.301 1084.51 54.8342 1085.04 55.2276C1085.65 55.6516 1086.4 55.8849 1087.4 55.8849C1088.19 55.8849 1089.12 55.6294 1089.61 55.345L1089.87 52.6653C1089.59 52.8481 1089.18 53.0157 1088.7 53.0157C1088.1 53.0157 1087.75 52.8016 1087.3 52.1051L1086.11 50.2119C1087.77 49.5308 1088.89 48.017 1088.89 45.6656C1088.89 43.8743 1088.17 42.4922 1086.72 41.6744C1085.7 41.0906 1084.2 40.8561 1082.15 40.8561H1076.61ZM1111.98 40.8561V55.6284H1122.22L1122.41 52.7591H1116.07V49.5544H1120.82V46.7052H1116.07V43.7304H1121.88V40.8561H1111.98ZM1123.81 40.8561V55.6284H1127.17V47.5772C1127.29 47.881 1127.55 48.2467 1127.81 48.5499L1133.78 55.6283H1136.35V40.856H1133.01V48.9708C1132.87 48.6478 1132.61 48.2773 1132.33 47.9462L1126.31 40.856L1123.81 40.8561ZM1138.49 40.8561V55.6284H1148.74L1148.93 52.7591H1142.58V49.5544H1147.33V46.7052H1142.58V43.7304H1148.39V40.8561H1138.49ZM1150.33 40.8561V55.6284H1154.41V50.7233H1155.5L1157.14 53.3661C1157.73 54.301 1158.22 54.8342 1158.75 55.2276C1159.36 55.6516 1160.11 55.8849 1161.12 55.8849C1161.91 55.8849 1162.84 55.6294 1163.33 55.345L1163.59 52.6653C1163.31 52.8481 1162.89 53.0157 1162.42 53.0157C1161.81 53.0157 1161.46 52.8016 1161.02 52.1051L1159.83 50.2119C1161.49 49.5308 1162.61 48.017 1162.61 45.6656C1162.61 43.8742 1161.89 42.4922 1160.43 41.6744C1159.41 41.0906 1157.92 40.8561 1155.86 40.8561H1150.33ZM1168.86 40.8561L1168.06 43.7304L1164.19 55.6281H1168.18L1168.97 52.9232H1173.9L1174.79 55.6281H1179.06L1173.74 40.8558L1168.86 40.8561ZM1180.09 40.8561V55.6284H1190.19L1190.37 52.7591H1184.18V40.8562L1180.09 40.8561ZM1029.63 43.7101C1031.27 43.7101 1032.18 45.0651 1032.18 48.2463C1032.18 51.4506 1031.27 52.7791 1029.63 52.7791C1028 52.7791 1027.09 51.4505 1027.09 48.2463C1027.09 45.0651 1028 43.7101 1029.63 43.7101ZM1012.67 43.7303H1013.56C1016.06 43.7303 1017.48 44.4351 1017.48 48.1105C1017.48 51.0271 1016.97 52.7792 1013.91 52.7792H1012.67V43.7303ZM1080.69 43.7303H1081.86C1082.98 43.7303 1083.71 43.8357 1084.13 44.2601C1084.48 44.6181 1084.66 45.1426 1084.66 45.8901C1084.66 47.4823 1084.04 48.1808 1082.42 48.1808H1080.69V43.7303ZM1154.41 43.7303H1155.57C1156.69 43.7303 1157.42 43.8357 1157.84 44.2601C1158.19 44.6181 1158.37 45.1426 1158.37 45.8901C1158.37 47.4823 1157.74 48.1808 1156.13 48.1808H1154.41V43.7303ZM1067.58 44.412H1067.63C1067.65 45.0038 1067.91 45.7981 1068.18 46.639L1069.33 50.1859H1066.08L1067.12 46.624C1067.36 45.7364 1067.56 44.9336 1067.58 44.412ZM1171.24 44.412H1171.28C1171.31 45.0038 1171.57 45.7981 1171.84 46.639L1172.99 50.1859H1169.75L1170.77 46.624C1171.03 45.7364 1171.21 44.9336 1171.24 44.412Z" fill="#03031C" fill-opacity="0.6"></path><path d="M1365.57 30.4744C1370.22 31.0246 1373.9 33.9226 1374.28 38.6753C1374.68 43.6923 1374.74 53.0944 1374.27 58.0624C1373.73 63.7793 1368.67 65.7104 1363.54 66.0209C1358.08 66.3505 1350.24 65.5334 1349 59.1219C1349.4 52.2582 1348.38 44.6429 1348.96 37.8691C1349.35 33.4486 1353.55 30.9374 1357.68 30.4771C1359.43 30.281 1363.83 30.2701 1365.57 30.4771L1365.57 30.4744ZM1359.79 36.4664C1357.48 36.796 1356.42 37.861 1356.12 40.108C1355.67 43.5316 1355.66 52.7076 1356.08 56.1531C1356.74 61.6957 1366.09 60.9631 1366.87 57.199C1366.44 51.7407 1367.66 44.8036 1366.9 39.5197C1366.46 36.382 1362.3 36.1097 1359.79 36.4692L1359.79 36.4664Z" fill="#03031C" fill-opacity="0.6"></path><path d="M1230.9 53.3559C1232.19 53.0889 1236.57 52.743 1237.52 53.3341C1238.38 53.8734 1237.68 56.9266 1238.18 58.1332C1239.1 60.3884 1243.86 60.7533 1245.32 59.0756C1245.47 58.904 1246.13 57.6402 1246.13 57.5285V31.4168C1246.13 30.488 1252.37 30.5397 1252.94 30.8748C1253.18 31.0137 1253.36 31.4712 1253.42 31.7463C1253.06 40.1352 1254.11 49.2322 1253.49 57.5394C1253.21 61.3307 1251.93 63.9101 1248.18 65.212C1242.78 67.0886 1232.98 66.5411 1230.9 60.086V53.3559Z" fill="#03031C" fill-opacity="0.6"></path><path d="M1419.84 30.7443C1420.06 30.8097 1420.25 31.1855 1420.26 31.4252C1417.7 42.7284 1414.68 53.9853 1411.68 65.1986C1410.94 65.9694 1405.34 66.0293 1404.73 65.2803L1399.17 43.3957C1397.88 50.6379 1395.78 57.7412 1393.93 64.8609C1393.3 66.0838 1389.88 65.8687 1388.54 65.7515C1387.5 65.6589 1386.72 65.4574 1386.43 64.3407L1378.19 32.0925C1377.55 30.1751 1382.69 30.6027 1383.95 30.728C1384.51 30.7824 1384.98 30.7062 1385.28 31.2945L1390.46 52.2776C1390.86 52.0025 1390.84 51.5613 1390.96 51.1582C1392.82 44.6976 1394.05 38.0356 1395.92 31.5723C1396.37 30.3467 1401.88 30.5537 1402.57 30.8778C1402.94 31.0548 1403.19 31.6404 1403.31 32.0244L1408.42 52.8196L1413.52 32.0244C1413.54 31.703 1414.21 30.7443 1414.4 30.7443C1415.53 30.7443 1419.11 30.5182 1419.84 30.7443Z" fill="#03031C" fill-opacity="0.6"></path><path d="M1270.81 30.7985C1277.73 31.1417 1294.44 28.1811 1295.39 38.4057C1295.97 44.7083 1294.95 51.9096 1295.35 58.3075C1294.52 63.9346 1288.76 65.4217 1283.81 65.7376C1280.61 65.9419 1274.65 66.0917 1271.56 65.7458C1271.05 65.6886 1270.57 65.6069 1270.2 65.2065V31.2806L1270.81 30.7985H1270.81ZM1277.42 59.5468H1284.9C1286.1 59.5468 1287.81 57.9698 1288.01 56.7033C1288.79 51.7162 1287.46 44.9398 1288.04 39.7566C1288.04 38.0162 1285.27 36.668 1283.81 36.668H1277.42V59.5495V59.5468Z" fill="#03031C" fill-opacity="0.6"></path><path d="M1458.34 65.0648C1458.06 65.9936 1453.45 65.8275 1452.49 65.7376C1451.4 65.6341 1451.23 65.5142 1451.07 64.4629C1451.58 54.2165 1450.14 42.8752 1450.98 32.7513C1451.02 32.2747 1451.15 31.1144 1451.53 30.8666C1452.1 30.4907 1463.71 30.6241 1465.29 30.7304C1469.43 31.0109 1475.21 32.8031 1475.75 37.6049C1475.95 39.3262 1475.97 44.7708 1475.63 46.3696C1475.11 48.8182 1472.37 50.4933 1470.34 51.5991L1475.62 63.5723C1475.74 63.9618 1475.9 65.2255 1475.72 65.438C1475.36 65.8547 1469.58 65.9391 1469.01 65.3971L1463.37 52.5442H1458.34V65.0621L1458.34 65.0648ZM1458.34 46.356H1465.55C1466.28 46.356 1468.18 44.8444 1468.47 44.1335C1469.06 42.7118 1468.91 38.9722 1467.58 37.8854C1467.12 37.5096 1464.99 36.6652 1464.46 36.6652H1458.34V46.356H1458.34Z" fill="#03031C" fill-opacity="0.6"></path><path d="M1326.39 53.3561V64.7955C1326.39 66.1001 1321.84 65.8359 1320.8 65.7487C1319.99 65.6807 1319.23 65.6997 1319.11 64.7437L1319.03 32.4819C1319.12 31.5205 1319.12 30.8586 1320.25 30.7306C1323.79 30.3303 1332.21 30.4909 1335.69 31.101C1339.55 31.7765 1343.42 33.8628 1343.82 38.1363C1344.04 40.544 1344.08 46.6777 1343.04 48.7014C1341.71 51.2943 1336.97 53.3561 1334.14 53.3561H1326.39ZM1332.51 36.6655C1330.63 36.434 1328.33 36.8371 1326.39 36.6655V47.4321H1332.51C1333.15 47.4321 1335.45 46.4761 1335.92 45.9613C1337.12 44.6513 1337.07 39.7596 1336.01 38.3487C1335.42 37.567 1333.46 36.7826 1332.51 36.6655Z" fill="#03031C" fill-opacity="0.6"></path><path d="M1431.95 36.6654V44.741H1443.79C1444.71 44.741 1444.71 50.3926 1443.79 50.3926H1431.95V59.5441H1444.6C1445.9 59.5441 1445.69 63.5316 1445.57 64.5393C1445.48 65.2774 1445.3 65.4872 1444.54 65.6751C1438.83 65.2992 1431.94 66.386 1426.37 65.7405C1426 65.6969 1424.88 65.3918 1424.88 65.0623V31.1472C1424.88 31.12 1425.26 30.7441 1425.29 30.7441H1444.6C1445.57 30.7441 1445.57 36.6654 1444.6 36.6654H1431.95Z" fill="#03031C" fill-opacity="0.6"></path><path d="M1256.33 58.7405H1262.32C1262.37 58.7405 1263 59.3669 1263 59.4132V65.0648C1263 66.0481 1255.93 66.0481 1255.93 65.0648V59.1436C1255.93 59.07 1256.25 58.8767 1256.34 58.7405H1256.33Z" fill="#03031C" fill-opacity="0.6"></path><path d="M1298.23 58.7405H1304.22C1304.25 58.7405 1304.63 59.1163 1304.63 59.1436V65.0648C1304.63 66.0481 1297.55 66.0481 1297.55 65.0648V59.4132C1297.55 59.3261 1298.11 58.9202 1298.24 58.7405H1298.23Z" fill="#03031C" fill-opacity="0.6"></path><path d="M904.762 16.9153C907.359 17.2696 909.83 18.0819 912.012 19.5467C915.283 21.7416 917.595 25.1594 918.485 29.0006C925.442 27.2032 932.035 33.6239 929.845 40.6409C928.544 44.8105 924.685 47.0401 920.481 47.2561C912.967 47.6407 905.125 46.9536 897.581 47.2561C896.362 47.2172 895.477 46.5086 895.369 45.2599L895.399 20.022C895.52 19.5942 895.658 19.1924 895.965 18.8597C896.967 17.7622 900.385 17.0233 901.85 16.9196H904.766L904.762 16.9153Z" fill="#03031C" fill-opacity="0.6"></path><path d="M966.533 70.9992C966.593 71.5998 966.593 72.7751 966.533 73.3757C966.209 76.5817 963.422 79.4205 960.108 79.4205H955.519V65.1704H960.972C961.313 65.1704 962.562 65.542 962.933 65.6889C965.102 66.5444 966.312 68.7437 966.533 70.9992ZM958.215 76.6163H960.319C964.195 76.6163 964.99 69.6597 961.741 68.2857C961.106 68.0178 960.146 67.9012 959.451 67.8752C959.066 67.8623 958.483 67.7715 958.211 68.0351V76.6163H958.215Z" fill="#03031C" fill-opacity="0.6"></path><path d="M929.814 79.5282C922.741 78.6813 922.763 64.4744 931.063 64.8417C938.646 65.1787 938.512 78.6943 931.542 79.5282C931.145 79.5757 930.216 79.5757 929.814 79.5282ZM930.328 67.6805C926.656 68.1255 926.638 75.5141 929.814 76.5598C935.055 78.2795 935.401 67.0669 930.328 67.6805Z" fill="#03031C" fill-opacity="0.6"></path><path d="M845.264 79.5282C844.871 79.5714 844.037 79.5714 843.644 79.5282C836.286 78.6986 836.593 63.9992 845.195 64.859C852.346 65.572 852.182 78.7462 845.264 79.5282ZM844.05 67.6805C839.721 68.2552 840.568 78.2882 845.537 76.508C848.825 75.3284 848.406 67.1015 844.05 67.6805Z" fill="#03031C" fill-opacity="0.6"></path><path d="M831.658 79.5281H829.498C827.804 79.1781 826.378 78.3917 825.285 77.0437V76.8276C826.067 76.4387 826.529 75.5659 827.285 75.0993C828.284 76.5295 830.435 77.0782 832.086 76.5554C832.967 76.2745 833.369 75.3629 832.941 74.5203C832.457 73.574 829.009 73.116 827.882 72.563C824.84 71.0679 825.229 66.6391 828.206 65.3299C830.721 64.2238 833.879 65.0058 835.655 67.0582L833.659 69.0544C832.851 67.8273 829.766 66.9545 828.854 68.2465C827.527 70.1303 831.753 70.6272 832.799 70.9988C836.744 72.3901 837.094 76.9097 833.646 78.9751L831.662 79.5281H831.658Z" fill="#03031C" fill-opacity="0.6"></path><path d="M944.825 79.5284C942.111 79.2216 940.072 76.5297 940.072 73.8594V65.0623H942.716L942.876 65.2221V74.1835C942.876 74.3779 943.295 75.3588 943.433 75.5705C944.315 76.897 946.264 77.1649 947.417 76.0242C947.776 75.6656 948.385 74.4514 948.385 73.9675V65.0623H951.194C951.077 67.7412 951.349 70.5497 951.198 73.2157C951.03 76.2186 949.794 79.1481 946.441 79.5284C946.048 79.5716 945.214 79.5716 944.82 79.5284H944.825Z" fill="#03031C" fill-opacity="0.6"></path><path d="M858.547 79.5284C855.142 79.1438 853.949 75.9896 853.789 72.9996C853.686 71.0164 853.565 67.322 853.789 65.4338C853.807 65.2783 853.802 65.1573 853.958 65.0623H856.602V73.9675C856.602 74.3693 857.134 75.523 857.41 75.86C858.486 77.1735 860.629 76.9575 861.554 75.5705C861.692 75.3631 862.111 74.3779 862.111 74.1835V65.2221L862.271 65.0623H864.916V73.8594C864.916 76.5729 862.928 79.2259 860.163 79.5284C859.765 79.5716 858.94 79.5716 858.542 79.5284H858.547Z" fill="#03031C" fill-opacity="0.6"></path><path d="M905.734 79.5283C905.324 79.5802 904.313 79.5759 903.898 79.5283C896.76 78.6728 896.903 64.3277 905.363 64.8419C907.35 64.9628 908.975 66.1684 909.826 67.9269L907.402 69.167C906.94 68.7997 906.741 68.2553 906.132 67.9572C901.012 65.4425 899.754 76.5038 904.71 76.7241C906.015 76.7803 906.875 75.9118 907.51 74.8921L909.709 76.3569C909.217 77.9124 907.311 79.3253 905.73 79.5283H905.734Z" fill="#03031C" fill-opacity="0.6"></path><path d="M871.665 65.0623L877.442 74.0236V65.0623H880.142V79.3123H877.658L871.773 70.0269L871.833 78.9407L871.665 79.3123H869.128V65.0623H871.665Z" fill="#03031C" fill-opacity="0.6"></path><path d="M884.463 79.3123V65.0623H889.7C890.547 65.0623 892.275 65.719 892.988 66.203C896.129 68.3418 896.237 74.5465 893.753 77.2081C892.806 78.2192 890.659 79.3123 889.268 79.3123H884.463ZM887.159 76.5081H889.479C889.708 76.5081 890.845 76.0026 891.082 75.8427C893.213 74.3909 893.256 69.4393 890.819 68.2597C890.668 68.1862 889.79 67.8708 889.695 67.8708H887.159V76.5081Z" fill="#03031C" fill-opacity="0.6"></path><path d="M891.562 21.2532C892.357 21.0933 892.469 21.7631 892.547 22.3809C893.381 28.8017 893.515 37.0933 892.884 43.5271C892.811 44.253 892.651 46.2837 892.426 46.8454C892.15 47.5281 891.19 47.3942 890.97 46.5214C890.707 45.4757 890.599 43.4795 890.512 42.3388C890.05 36.2465 890.3 29.5405 890.836 23.4482C890.875 23.0031 890.905 22.1476 891.013 21.7933C891.095 21.5254 891.277 21.3137 891.562 21.2532Z" fill="#03031C" fill-opacity="0.6"></path><path d="M916.424 65.0623V76.5081H923.337V79.1525L923.173 79.3123H913.728V65.0623H916.424Z" fill="#03031C" fill-opacity="0.6"></path><path d="M881.793 47.109C881.693 47.0312 881.59 46.7763 881.555 46.6467C881.119 44.9745 881.088 42.1746 881.002 40.3945C880.881 37.8495 880.872 35.2829 880.89 32.725C881.296 30.0072 881.006 26.7579 881.551 24.1006C881.667 23.5346 882.13 23.2365 882.661 23.513C883.119 23.7506 883.093 24.3599 883.162 24.8481C883.875 30.1887 884.009 36.7563 883.594 42.1185C883.538 42.8357 883.171 46.6985 882.89 47.0269C882.657 47.3034 882.065 47.3251 881.788 47.1047L881.793 47.109Z" fill="#03031C" fill-opacity="0.6"></path><path d="M887.565 24.2868C887.777 24.4855 887.872 25.3799 887.915 25.717C888.589 31.0618 888.719 37.5128 888.239 42.8793C888.149 43.8688 888.028 45.7483 887.781 46.6341C887.565 47.4075 886.442 47.4075 886.234 46.7205C886.105 46.2884 886.031 45.2341 885.971 44.7156C885.215 38.1177 885.63 31.36 886.209 24.7664C886.304 24.1874 887.172 23.9195 887.561 24.2868H887.565Z" fill="#03031C" fill-opacity="0.6"></path><path d="M877.416 25.5698C877.969 25.4574 878.267 25.7685 878.388 26.2784C878.634 27.3111 878.751 29.0351 878.846 30.1369C879.218 34.5312 879.183 39.3532 878.738 43.7388C878.66 44.5209 878.556 45.9986 878.345 46.69C878.098 47.485 877.035 47.4072 876.819 46.6295C876.552 45.6573 876.448 43.5358 876.366 42.4426C876.033 38.1002 876.063 33.4985 876.474 29.1647C876.552 28.3221 876.638 26.9395 876.819 26.1661C876.88 25.8982 877.144 25.626 877.416 25.5698Z" fill="#03031C" fill-opacity="0.6"></path><path d="M868.774 46.2538C868.532 46.5174 867.914 46.5693 867.616 46.3359C867.283 46.0767 867.136 44.2792 867.076 43.7434C866.674 40.2522 866.544 36.2339 866.981 32.747C867.041 32.2673 867.288 30.3705 867.538 30.1199C868.044 29.6144 868.718 29.9341 868.93 30.5563C869.184 31.2995 869.362 32.8766 869.448 33.7062C869.729 36.3116 869.677 38.9776 869.448 41.583C869.396 42.175 868.964 46.0464 868.774 46.2538Z" fill="#03031C" fill-opacity="0.6"></path><path d="M872.291 30.8713C872.658 30.5041 873.363 30.6164 873.583 31.0874C873.803 31.5584 874.002 33.1355 874.08 33.7231C874.577 37.4304 874.309 41.5438 873.76 45.2424C873.687 45.7436 873.622 46.9362 873.229 47.1954C872.654 47.5713 872.166 47.1522 872.054 46.5473C871.47 43.3931 871.233 38.3032 871.509 35.1101C871.565 34.4619 871.971 31.1954 872.295 30.8757L872.291 30.8713Z" fill="#03031C" fill-opacity="0.6"></path><path d="M863.049 32.4834C864.298 32.1118 864.492 34.0691 864.648 34.9419C865.097 37.4437 864.864 40.8399 864.129 43.2811C863.857 44.1885 862.924 44.2403 862.673 43.5015C862.487 42.9484 862.314 41.5614 862.232 40.922C861.956 38.8091 861.878 36.7091 862.25 34.6006C862.332 34.121 862.565 32.6303 863.049 32.4877V32.4834Z" fill="#03031C" fill-opacity="0.6"></path><path d="M159.037 29.668L164.209 56.5327L170.701 29.6649L176.023 29.6077L182.584 56.5333L187.416 29.668H192.648L185.568 66.1836L179.974 66.178L173.227 38.8885L166.387 66.1879L160.884 66.1842L153.496 29.668H159.037Z" fill="#03031C" fill-opacity="0.6"></path><path d="M102.463 57.0246V29.7295H107.542L107.634 66.2457H102.432C97.5477 58.1145 92.4837 50.0893 87.6012 41.9581C87.1942 41.2801 86.7687 40.6052 86.3851 39.9143C86.2324 39.6397 86.1302 39.2838 85.9036 39.0738L85.9639 66.2457L80.7933 66.1534V29.668H86.0569L101.096 54.6699L102.463 57.0246Z" fill="#03031C" fill-opacity="0.6"></path><path d="M128.318 63.5405C125.161 67.0707 119.817 67.8718 115.741 65.434C110.46 62.2751 110.098 54.3471 115.088 50.7277C118.983 47.9025 123.798 48.8126 128.318 48.663C128.281 47.0731 128.327 45.2849 126.993 44.1765C124.957 42.4856 120.331 43.0189 117.914 43.5897C116.97 43.8126 116.066 44.1316 115.145 44.4197L115.202 39.5958C118.524 38.3058 122.526 37.7658 126.052 38.4154C130.547 39.2436 133.345 42.0626 133.552 46.7221L133.55 66.2444H128.318V63.5393L128.318 63.5405ZM128.318 58.4691V53.4894L128.106 53.3939C125.087 53.6686 119.744 52.4549 117.678 55.2825C116.21 57.2923 116.948 60.3355 119.165 61.4617C122.161 62.9839 126.536 61.1113 128.318 58.4685V58.4691Z" fill="#03031C" fill-opacity="0.6"></path><path d="M216.719 54.5651H199.113C199.058 56.083 199.454 57.6359 200.257 58.9247C202.87 63.1199 209.129 62.4894 213.067 60.7234C213.263 60.6353 214.44 59.9826 214.503 60.0368L214.448 64.9112C208.515 68.0682 199.818 67.7105 195.849 61.6673C192.861 57.1205 192.808 49.0934 195.387 44.3588C198.02 39.5262 203.643 37.2226 208.948 38.7491C215.532 40.6432 217.598 48.4801 216.719 54.5645L216.719 54.5651ZM211.363 50.0158C211.358 47.3914 210.094 44.429 207.499 43.4536C205.108 42.554 202.488 43.2017 200.837 45.1303C199.679 46.4838 199.145 48.2572 199.051 50.0158H211.363Z" fill="#03031C" fill-opacity="0.6"></path><path d="M237.157 44.7908C236.596 44.5137 236.033 44.2348 235.449 44.0069C233.144 43.1098 227.905 42.0051 226.139 44.2699C224.911 45.8444 226.226 47.4534 227.596 48.2834C231.443 50.6135 237.801 51.5255 238.973 56.6554C239.545 59.1603 239.027 61.6838 237.34 63.632C233.412 68.1659 225.571 67.2866 220.659 64.9861V59.8531C222.978 61.0286 225.471 61.8192 228.077 62.0655C230.328 62.2786 233.617 61.8285 233.741 58.9879C233.827 57.0415 232.272 56.3389 230.777 55.6197C227.127 53.8648 221.756 52.5612 220.553 48.1855C219.066 42.7791 223.011 38.8647 228.2 38.337C231.139 38.0377 234.474 38.5771 237.157 39.7809V44.7914L237.157 44.7908Z" fill="#03031C" fill-opacity="0.6"></path><path d="M249.777 29.6064V38.7666H256.364V43.5H249.777L249.774 58.6565C249.852 60.2304 250.398 61.4508 252.053 61.7913C253.464 62.0814 254.981 61.8517 256.364 61.5124V66.2458C254.579 66.6183 252.742 66.8917 250.912 66.8609C246.678 66.7901 244.661 64.191 244.483 60.1331V43.5616H240.604V38.8282H244.483V31.4507L249.777 29.6064Z" fill="#03031C" fill-opacity="0.6"></path><path d="M151.896 38.8275L151.804 43.5H145.309V59.0228C145.309 59.4003 145.585 60.2408 145.776 60.5857C146.812 62.4545 150.177 61.9434 151.896 61.513V66.2464C150.104 66.6177 148.281 66.893 146.443 66.8616C142.295 66.792 140.195 64.276 140.014 60.2568V43.5H136.136V38.7666H140.014V31.4507L145.247 29.6064V38.7358L145.34 38.8282H151.896V38.8275Z" fill="#03031C" fill-opacity="0.6"></path><path d="M40.0269 29.7468L50.5393 29.7271C51.0054 29.7757 51.4451 30.0214 51.6637 30.4487C53.2068 33.4494 55.1489 36.3428 56.673 39.3398C56.9574 39.8995 57.1483 40.1877 56.9217 40.8386C55.1323 43.8478 53.5695 47.0763 51.7481 50.0578C51.5603 50.3651 51.3472 50.9063 50.9463 50.4685L45.8182 41.3269C45.3059 40.8355 44.8188 40.4266 44.075 40.3626L33.82 40.3367C33.4019 40.1538 33.6076 39.8804 33.751 39.5855C35.272 36.4648 37.4278 33.4401 39.0048 30.3237C39.2893 29.9389 39.5485 29.8034 40.0269 29.7461V29.7468Z" fill="#03031C" fill-opacity="0.6"></path><path d="M59.721 45.2937C59.8903 45.2408 60.083 45.2759 60.1612 45.4458L65.5104 54.981C65.6607 55.3597 65.6841 55.6497 65.5566 56.0401C63.7826 59.0044 62.2296 62.1793 60.4273 65.119C60.0147 65.792 59.8472 66.1214 58.9728 66.1867C55.6366 66.4361 51.9937 65.9927 48.6255 66.1867C48.3151 66.175 48.0436 66.0149 47.8028 65.84C46.0805 62.8536 44.3225 59.8566 42.6766 56.8197C42.5657 56.6146 42.187 56.0038 42.1956 55.8307C42.211 55.5161 42.4752 55.5413 42.719 55.5235C45.8829 55.2963 49.3909 55.7827 52.5479 55.5358C53.5442 55.4576 54.0873 55.1066 54.6181 54.2765C56.3552 51.5641 57.7093 48.4095 59.4211 45.6712C59.4876 45.5647 59.6058 45.3288 59.7204 45.2931L59.721 45.2937Z" fill="#03031C" fill-opacity="0.6"></path><path d="M30.5817 65.7327C28.8865 62.8454 27.2923 59.899 25.6463 56.9833C25.0977 56.0123 24.7017 55.8177 25.296 54.6255C27.0601 51.7943 28.4727 48.604 30.2424 45.7948C30.4838 45.4118 30.663 45.1649 31.1125 45.0042L42.2739 44.9851C42.4432 45.0787 42.4771 45.3028 42.4149 45.4697L37.4937 54.2044C37.0466 55.144 36.9352 55.7746 37.3828 56.7592L42.41 65.7463C42.421 65.9027 42.3545 66.0492 42.1988 66.0967L31.4506 66.1262C31.1137 66.117 30.8348 65.9292 30.5817 65.734V65.7327Z" fill="#03031C" fill-opacity="0.6"></path><path d="M341.181 64.3259C341.181 64.771 341.164 65.175 341.187 65.5767C341.205 65.8962 341.083 65.9851 340.775 65.9823C339.327 65.9694 337.879 65.9766 336.431 65.9766C334.312 65.9766 332.192 65.9673 330.073 65.9851C329.684 65.9884 329.53 65.8907 329.569 65.4863C329.603 65.1314 329.608 64.767 329.568 64.4132C329.519 63.9709 329.717 63.9157 330.102 63.899C330.663 63.8746 331.24 63.822 331.775 63.6622C333.127 63.2586 333.866 62.0774 333.866 60.4169C333.87 54.9391 333.868 49.4612 333.868 43.9833C333.868 41.2966 333.872 38.6099 333.863 35.9232C333.862 35.5528 333.829 35.175 333.751 34.8136C333.419 33.2791 332.367 32.3988 330.786 32.3181C330.403 32.2985 330.017 32.3151 329.578 32.3151C329.578 31.6412 329.563 31.0335 329.596 30.4284C329.601 30.3471 329.844 30.2172 329.98 30.2144C330.89 30.1953 331.8 30.2043 332.711 30.2043C335.353 30.2043 337.995 30.2127 340.636 30.1949C341.01 30.1923 341.14 30.3172 341.235 30.6645C343.172 37.7518 345.124 44.8352 347.071 51.9197C347.304 52.768 347.528 53.6188 347.759 54.4676C347.797 54.604 347.85 54.7359 347.983 54.8742C348.168 54.2241 348.357 53.575 348.538 52.9237C350.198 46.9428 351.857 40.9618 353.515 34.9804C353.922 33.5144 354.331 32.049 354.721 30.5787C354.796 30.2938 354.928 30.1989 355.216 30.1995C358.799 30.207 362.381 30.2042 365.963 30.2058C366.065 30.2058 366.166 30.2262 366.285 30.239C366.285 30.935 366.285 31.6127 366.285 32.3156C365.905 32.3329 365.549 32.3281 365.198 32.3687C363.137 32.6068 362.187 33.5985 362.02 35.6738C362.007 35.8371 362.005 36.0017 362.005 36.1658C362.005 44.1363 362.003 52.1068 362.01 60.0774C362.01 60.507 362.045 60.9459 362.136 61.3646C362.503 63.0411 363.641 63.87 365.586 63.9124C365.807 63.9172 366.028 63.913 366.281 63.913C366.281 64.6018 366.281 65.2513 366.281 65.9558C366.127 65.9627 365.97 65.9757 365.812 65.9757C361.439 65.9768 357.066 65.9705 352.692 65.9862C352.259 65.9878 352.115 65.8695 352.147 65.4361C352.184 64.9504 352.156 64.4597 352.156 63.9444C352.487 63.9212 352.766 63.9074 353.044 63.8813C355.089 63.6897 356.069 62.7037 356.243 60.6604C356.263 60.4229 356.267 60.1834 356.267 59.9448C356.268 51.8847 356.267 43.8246 356.267 35.7645C356.267 35.6067 356.267 35.4488 356.267 35.291C356.236 35.2854 356.205 35.2798 356.173 35.2742C356.004 35.8674 355.832 36.4597 355.667 37.0541C353.961 43.1926 352.256 49.3314 350.551 55.4701C349.621 58.8185 348.684 62.1653 347.768 65.5175C347.672 65.8703 347.531 66.0156 347.16 65.9829C346.645 65.9376 345.996 66.1161 345.647 65.8637C345.318 65.6256 345.291 64.9569 345.149 64.4726C342.351 54.9702 339.556 45.467 336.759 35.964C336.719 35.826 336.674 35.6892 336.558 35.563C336.558 35.717 336.558 35.871 336.558 36.025C336.558 44.0702 336.555 52.1154 336.563 60.1605C336.564 60.6044 336.596 61.0605 336.7 61.4899C337.087 63.0814 338.203 63.8584 340.115 63.912C340.354 63.9186 340.594 63.9276 340.832 63.9099C341.119 63.8883 341.204 64.0292 341.181 64.3259Z" fill="#03031C" fill-opacity="0.6"></path><path d="M302.345 30.2039C306.924 30.2039 311.459 30.2039 316.019 30.2039C316.019 34.2713 316.019 38.2923 316.019 42.3402C315.322 42.3402 314.641 42.3402 313.919 42.3402C313.883 41.7754 313.866 41.1998 313.808 40.6285C313.587 38.4578 312.872 36.5036 311.23 34.9852C309.802 33.6657 308.063 33.0537 306.164 32.8483C305.548 32.7816 304.925 32.7711 304.253 32.7318C304.253 32.9631 304.253 33.1236 304.253 33.2841C304.253 41.524 304.25 49.7638 304.26 58.0037C304.261 58.702 304.307 59.4082 304.418 60.0969C304.723 61.9861 305.839 63.0582 307.744 63.3067C308.407 63.3932 309.082 63.3926 309.752 63.4273C309.927 63.4363 310.102 63.4287 310.3 63.4287C310.3 64.2927 310.3 65.1061 310.3 65.9477C304.124 65.9477 297.968 65.9477 291.781 65.9477C291.781 65.1136 291.781 64.3008 291.781 63.4106C292.264 63.4106 292.738 63.4268 293.211 63.4058C293.657 63.386 294.107 63.3598 294.546 63.2795C296.497 62.922 297.558 61.6931 297.758 59.5859C297.786 59.2892 297.797 58.9899 297.797 58.6919C297.799 50.243 297.799 41.7942 297.799 33.3454C297.799 33.1691 297.799 32.9929 297.799 32.7609C295.1 32.7411 292.621 33.2389 290.65 35.1877C288.673 37.1435 288.23 39.6603 288.186 42.3325C287.477 42.3325 286.786 42.3325 286.061 42.3325C286.061 38.3128 286.061 34.2913 286.061 30.2039C291.475 30.2039 296.888 30.2039 302.345 30.2039Z" fill="#03031C" fill-opacity="0.6"></path><path d="M401.305 41.0819C404.469 39.634 409.899 40.2232 412.58 44.8976C413.723 46.8898 414.307 49.0406 414.506 51.3086C414.737 53.9432 414.624 56.5535 413.856 59.1044C413.301 60.9438 412.45 62.6235 411.067 63.9876C409.551 65.4831 407.706 66.2754 405.593 66.4578C402.299 66.742 399.479 65.7294 397.153 63.369C397.133 63.3485 397.103 63.3371 397.022 63.2858C396.658 63.8344 396.223 64.3529 395.943 64.9448C395.534 65.8107 394.932 66.142 394 65.9856C393.654 65.9275 393.29 65.9762 392.889 65.9762C392.995 65.3272 393.123 64.7326 393.183 64.1312C393.295 63.0199 393.441 61.9048 393.443 60.791C393.465 52.1785 393.456 43.5659 393.452 34.9533C393.452 34.6267 393.443 34.2933 393.379 33.9749C393.164 32.9065 392.554 32.3832 391.463 32.3194C391.064 32.2961 390.663 32.3156 390.229 32.3156C390.229 31.5964 390.229 30.9337 390.229 30.2038C390.373 30.2038 390.516 30.2038 390.659 30.2038C393.211 30.2038 395.764 30.2145 398.316 30.1934C398.751 30.1898 398.824 30.3433 398.823 30.7326C398.81 34.6284 398.815 38.5242 398.815 42.42C398.815 42.582 398.815 42.744 398.815 43.0436C399.57 42.1923 400.339 41.5321 401.305 41.0819ZM407.869 59.7738C407.961 59.3822 408.069 58.9934 408.143 58.5984C408.751 55.3564 408.736 52.1013 408.281 48.847C408.065 47.3034 407.669 45.8067 406.775 44.487C405.276 42.2755 402.57 42.5578 401.138 43.9742C400.186 44.9162 399.606 46.0677 399.245 47.3269C398.122 51.2383 398.105 55.1787 399.04 59.1271C399.388 60.5964 399.948 61.9707 401.07 63.0447C402.641 64.5486 405.033 64.4194 406.426 62.7567C407.141 61.9037 407.544 60.8973 407.869 59.7738Z" fill="#03031C" fill-opacity="0.6"></path><path d="M386.729 62.4244C383.068 67.6547 375.495 67.8313 371.415 64.4782C369.469 62.8784 368.255 60.7976 367.604 58.3965C366.507 54.349 366.652 50.3536 368.46 46.5273C370.612 41.9721 374.757 39.9906 379.534 40.5439C383.516 41.0051 386.314 43.1886 387.893 46.8009C389.943 51.4893 389.843 56.2161 387.671 60.8682C387.421 61.405 387.058 61.8894 386.729 62.4244ZM373.827 60.6484C374.117 61.2849 374.341 61.9616 374.707 62.5509C376.315 65.1435 379.739 65.1891 381.455 62.6654C382.165 61.6213 382.558 60.446 382.777 59.2212C383.431 55.5618 383.431 51.8907 382.831 48.2258C382.6 46.8192 382.174 45.469 381.307 44.2982C379.675 42.0954 376.532 42.0942 374.909 44.3003C374.187 45.282 373.806 46.409 373.542 47.581C373.01 49.9429 372.964 52.3431 373.018 54.7472C373.062 56.7192 373.219 58.6798 373.827 60.6484Z" fill="#03031C" fill-opacity="0.6"></path><path d="M447.897 62.8567C446.379 60.7199 445.649 58.3337 445.383 55.7884C445.107 53.1505 445.282 50.5487 446.103 48.0119C446.765 45.9658 447.758 44.1158 449.394 42.6701C451.219 41.0574 453.375 40.3874 455.786 40.4613C459.667 40.5803 462.308 42.5422 463.935 45.9802C464.936 48.0959 465.406 50.3477 465.544 52.6736C465.606 53.7105 465.594 53.7112 464.55 53.7112C460.252 53.7112 455.955 53.7112 451.657 53.7112C451.482 53.7112 451.308 53.7112 451.054 53.7112C451.137 54.8805 451.146 56.0013 451.312 57.0982C451.499 58.3306 451.703 59.5859 452.118 60.7534C453.38 64.3027 457.365 65.3338 460.268 62.92C461.49 61.9041 462.262 60.5604 462.935 59.1513C463.018 58.9765 463.102 58.8017 463.188 58.6283C463.2 58.6035 463.229 58.5869 463.307 58.5112C463.973 58.86 464.663 59.2218 465.378 59.5964C465.325 59.7308 465.291 59.8415 465.24 59.9431C464.515 61.3708 463.704 62.7431 462.603 63.9204C460.532 66.1372 457.928 66.9072 454.975 66.6802C452.448 66.4861 450.27 65.5334 448.543 63.6411C448.322 63.3991 448.124 63.1361 447.897 62.8567ZM451.204 51.3817C454.058 51.3817 456.912 51.3817 459.818 51.3817C459.752 50.4438 459.719 49.5658 459.622 48.6947C459.462 47.2533 459.209 45.8289 458.486 44.5407C457.919 43.5297 457.138 42.8009 455.916 42.6906C454.281 42.5431 453.226 43.3854 452.51 44.7381C451.419 46.7979 451.225 49.0539 451.204 51.3817Z" fill="#03031C" fill-opacity="0.6"></path><path d="M431.299 65.7045C431.299 65.1993 431.31 64.7363 431.294 64.2742C431.285 64.0067 431.372 63.8988 431.651 63.9069C431.978 63.9163 432.307 63.8962 432.633 63.8643C433.827 63.7477 434.464 63.095 434.555 61.8991C434.576 61.6316 434.579 61.3623 434.579 61.0939C434.58 52.4525 434.581 43.811 434.577 35.1696C434.577 34.7832 434.567 34.3902 434.499 34.0118C434.299 32.9076 433.698 32.3889 432.571 32.3179C432.245 32.2974 431.917 32.3147 431.548 32.3147C431.548 31.6105 431.548 30.9495 431.548 30.2456C434.318 30.2456 437.098 30.2456 439.929 30.2456C439.929 30.4397 439.929 30.6289 439.929 30.8181C439.929 40.9371 439.929 51.0561 439.929 61.1751C439.929 61.369 439.923 61.5644 439.944 61.7564C440.114 63.2812 440.753 63.8488 442.37 63.9101C442.666 63.9213 442.964 63.9117 443.293 63.9117C443.293 64.6025 443.293 65.2638 443.293 65.9496C443.164 65.9591 443.048 65.975 442.932 65.975C439.201 65.9763 435.47 65.9787 431.738 65.9664C431.592 65.9659 431.446 65.8234 431.299 65.7045Z" fill="#03031C" fill-opacity="0.6"></path><path d="M424.603 41.2039C424.973 41.2039 425.299 41.2039 425.696 41.2039C425.696 41.4333 425.696 41.6201 425.696 41.8069C425.696 48.1659 425.695 54.5249 425.699 60.8838C425.699 61.2707 425.723 61.6599 425.768 62.0441C425.897 63.1337 426.504 63.7361 427.595 63.8559C427.98 63.8981 428.369 63.9095 428.756 63.9074C429.009 63.9061 429.101 63.9972 429.094 64.2481C429.08 64.6806 429.071 65.1149 429.097 65.5463C429.117 65.8827 428.997 65.9845 428.664 65.982C426.918 65.9686 425.171 65.9758 423.425 65.9758C421.455 65.9758 419.484 65.9758 417.514 65.9758C417.353 65.9758 417.193 65.9758 417.004 65.9758C417.004 65.2782 417.004 64.6297 417.004 63.9121C417.29 63.9121 417.567 63.9162 417.844 63.9115C419.636 63.8812 420.368 63.1417 420.369 61.3523C420.372 57.9937 420.37 54.6351 420.37 51.2765C420.37 49.5001 420.374 47.7238 420.367 45.9475C420.365 45.6207 420.342 45.2901 420.288 44.9682C420.106 43.8903 419.405 43.3363 418.152 43.2658C417.872 43.2501 417.59 43.2635 417.277 43.2635C417.277 42.5668 417.277 41.9179 417.277 41.2039C419.704 41.2039 422.132 41.2039 424.603 41.2039Z" fill="#03031C" fill-opacity="0.6"></path><path d="M293.199 51.7557C293.199 52.4542 293.199 53.1079 293.199 53.794C290.801 53.794 288.44 53.794 286.054 53.794C286.054 51.4151 286.054 49.0523 286.054 46.6646C288.429 46.6646 290.78 46.6646 293.199 46.6646C293.199 48.3517 293.199 50.0313 293.199 51.7557Z" fill="#03031C" fill-opacity="0.6"></path><path d="M309.871 46.6392C311.941 46.6392 313.966 46.6392 316.018 46.6392C316.018 49.0474 316.018 51.4106 316.018 53.8001C313.647 53.8001 311.296 53.8001 308.909 53.8001C308.909 51.4333 308.909 49.0708 308.909 46.6392C309.212 46.6392 309.519 46.6392 309.871 46.6392Z" fill="#03031C" fill-opacity="0.6"></path><path d="M424.744 30.474C425.837 31.4109 426.174 32.5895 425.879 33.9231C425.602 35.1772 424.784 35.9901 423.539 36.3226C421.998 36.7342 420.383 36.0126 419.671 34.6279C418.981 33.2857 419.287 31.5918 420.396 30.6189C421.64 29.5276 423.336 29.4629 424.744 30.474Z" fill="#03031C" fill-opacity="0.6"></path></svg> 