<?xml version="1.0" encoding="UTF-8"?> <svg xmlns="http://www.w3.org/2000/svg" width="251" height="250" viewBox="0 0 251 250" fill="none"><g clip-path="url(#clip0_4906_2386)"><path d="M167.108 32.9444H60.7499C54.5684 32.9444 49.5586 37.9543 49.5586 44.1357V195.279C49.5586 201.46 54.5684 206.47 60.7499 206.47H167.108C173.289 206.47 178.299 201.46 178.299 195.279V44.1357C178.299 37.9543 173.289 32.9444 167.108 32.9444Z" fill="#FFC743"></path><path d="M161.512 44.1357H66.3457C63.2549 44.1357 60.75 46.6407 60.75 49.7314V189.673C60.75 192.764 63.2549 195.269 66.3457 195.269H161.512C164.603 195.269 167.108 192.764 167.108 189.673V49.7314C167.108 46.6407 164.603 44.1357 161.512 44.1357Z" fill="#F7F7FF"></path><path d="M144.715 60.9328H83.1425C78.5165 60.9328 74.749 57.1653 74.749 52.5393V46.9437C74.749 42.3176 78.5165 38.5502 83.1425 38.5502H144.715C149.341 38.5502 153.108 42.3176 153.108 46.9437V52.5393C153.108 57.1653 149.341 60.9328 144.715 60.9328ZM83.1425 44.1357C81.5971 44.1357 80.3447 45.3882 80.3447 46.9336V52.5292C80.3447 54.0746 81.5971 55.327 83.1425 55.327H144.715C146.26 55.327 147.513 54.0746 147.513 52.5292V46.9336C147.513 45.3882 146.26 44.1357 144.715 44.1357H83.1425Z" fill="#9393AA"></path><path d="M139.119 32.9444H88.7382C85.6475 32.9444 83.1426 35.4493 83.1426 38.5401V44.1458C83.1426 47.2366 85.6475 49.7415 88.7382 49.7415H139.119C142.21 49.7415 144.715 47.2366 144.715 44.1458V38.5401C144.715 35.4493 142.21 32.9444 139.119 32.9444Z" fill="#D1D1E0"></path><path d="M149.927 81.8104H87.7585C83.4186 81.8104 79.9004 85.3286 79.9004 89.6686V89.6787C79.9004 94.0186 83.4186 97.5368 87.7585 97.5368H149.927C154.267 97.5368 157.785 94.0186 157.785 89.6787V89.6686C157.785 85.3286 154.267 81.8104 149.927 81.8104Z" fill="#37D3CF"></path><path d="M154.179 107.122H83.5063C81.5148 107.122 79.9004 108.737 79.9004 110.728C79.9004 112.72 81.5148 114.334 83.5063 114.334H154.179C156.171 114.334 157.785 112.72 157.785 110.728C157.785 108.737 156.171 107.122 154.179 107.122Z" fill="#D1D1E0"></path><path d="M154.179 121.374H83.5063C81.5148 121.374 79.9004 122.988 79.9004 124.98C79.9004 126.971 81.5148 128.586 83.5063 128.586H154.179C156.171 128.586 157.785 126.971 157.785 124.98C157.785 122.988 156.171 121.374 154.179 121.374Z" fill="#D1D1E0"></path><path d="M154.179 135.626H83.5063C81.5148 135.626 79.9004 137.24 79.9004 139.232C79.9004 141.223 81.5148 142.837 83.5063 142.837H154.179C156.171 142.837 157.785 141.223 157.785 139.232C157.785 137.24 156.171 135.626 154.179 135.626Z" fill="#D1D1E0"></path><path d="M154.179 149.877H83.5063C81.5148 149.877 79.9004 151.492 79.9004 153.483C79.9004 155.475 81.5148 157.089 83.5063 157.089H154.179C156.171 157.089 157.785 155.475 157.785 153.483C157.785 151.492 156.171 149.877 154.179 149.877Z" fill="#D1D1E0"></path><path d="M154.179 164.129H83.5063C81.5148 164.129 79.9004 165.744 79.9004 167.735C79.9004 169.726 81.5148 171.341 83.5063 171.341H154.179C156.171 171.341 157.785 169.726 157.785 167.735C157.785 165.744 156.171 164.129 154.179 164.129Z" fill="#D1D1E0"></path><path d="M166.562 213.935L166.179 213.783C148.018 206.571 136.099 189.007 136.099 169.482V147.726H136.483C146.563 147.726 156.371 144.534 164.522 138.605L166.552 137.131L168.582 138.605C176.734 144.534 186.541 147.726 196.621 147.726H197.005V169.482C197.005 189.017 185.087 206.571 166.936 213.783L166.552 213.935H166.562Z" fill="#2FA574"></path><path d="M161.613 190.703C160.522 190.703 159.472 190.269 158.704 189.502L149.109 179.906C147.503 178.3 147.503 175.694 149.109 174.088C150.715 172.482 153.321 172.482 154.927 174.088L161.613 180.785L178.683 163.715C180.289 162.109 182.895 162.109 184.501 163.715C186.107 165.321 186.107 167.927 184.501 169.533L164.532 189.502C163.754 190.279 162.714 190.703 161.623 190.703H161.613Z" fill="white"></path><path d="M149.715 45.6912C149.715 48.792 147.21 51.2969 144.119 51.2969H93.738C90.6473 51.2969 88.1424 48.792 88.1424 45.7013C86.597 45.6912 85.3445 46.9436 85.3445 48.489V54.0847C85.3445 55.63 86.597 56.8825 88.1424 56.8825H149.715C151.26 56.8825 152.513 55.63 152.513 54.0847V48.489C152.513 46.9436 151.26 45.6912 149.715 45.6912ZM148.685 196.824H71.3453C68.2546 196.824 65.7497 194.319 65.7497 191.229V51.2868C65.7497 48.1961 68.2546 45.6912 71.3453 45.6912H80.2337C81.3953 42.4388 84.5062 40.1056 88.1424 40.1056C88.1424 37.0048 90.6473 34.4999 93.738 34.4999H65.7497C59.5682 34.4999 54.5583 39.5097 54.5583 45.6912V196.834C54.5583 203.016 59.5682 208.026 65.7497 208.026H158.704C154.775 204.834 151.402 201.046 148.685 196.824ZM172.107 34.4999H144.119C147.21 34.4999 149.715 37.0048 149.715 40.0955C153.351 40.1056 156.462 42.4388 157.623 45.6912H166.512C169.603 45.6912 172.107 48.1961 172.107 51.2868V139.09L173.582 140.161C176.612 142.373 179.875 144.191 183.299 145.625V45.6912C183.299 39.5097 178.289 34.4999 172.107 34.4999Z" stroke="#505071" stroke-width="3.97" stroke-linecap="round" stroke-linejoin="round"></path><path d="M172.108 51.2868V139.09L171.552 138.686L169.522 140.161C161.381 146.08 151.563 149.281 141.483 149.281H141.099V171.038C141.099 171.654 141.109 172.28 141.129 172.896C141.473 181.573 144.16 189.805 148.685 196.824H71.3454C68.2547 196.824 65.7498 194.319 65.7498 191.229V51.2868C65.7498 48.1961 68.2547 45.6912 71.3454 45.6912H80.2338C79.9207 46.5699 79.749 47.5092 79.749 48.4991V54.0947C79.749 58.7208 83.5165 62.4882 88.1425 62.4882H149.715C154.341 62.4882 158.108 58.7208 158.108 54.0947V48.4991C158.108 47.5092 157.937 46.5699 157.624 45.6912H166.512C169.603 45.6912 172.108 48.1961 172.108 51.2868Z" stroke="#505071" stroke-width="3.97" stroke-linecap="round" stroke-linejoin="round"></path><path d="M152.513 48.489V54.0846C152.513 55.63 151.26 56.8825 149.715 56.8825H88.1423C86.5969 56.8825 85.3445 55.63 85.3445 54.0846V48.489C85.3445 46.9436 86.5969 45.6912 88.1423 45.6912C88.1423 48.792 90.6472 51.2969 93.738 51.2969H144.119C147.21 51.2969 149.715 48.792 149.715 45.7013C151.26 45.6912 152.513 46.9436 152.513 48.489Z" stroke="#505071" stroke-width="3.97" stroke-linecap="round" stroke-linejoin="round"></path><path d="M158.108 48.4991V54.0948C158.108 58.7208 154.341 62.4882 149.715 62.4882H88.1423C83.5163 62.4882 79.7488 58.7208 79.7488 54.0948V48.4991C79.7488 47.5093 79.9205 46.5699 80.2336 45.6912C81.3952 42.4388 84.5061 40.1056 88.1423 40.1056V45.6912C86.5969 45.6912 85.3444 46.9436 85.3444 48.489V54.0847C85.3444 55.63 86.5969 56.8825 88.1423 56.8825H149.715C151.26 56.8825 152.512 55.63 152.512 54.0847V48.489C152.512 46.9436 151.26 45.6912 149.715 45.6912V40.1056C153.351 40.1056 156.462 42.4388 157.623 45.6912C157.936 46.5699 158.108 47.5093 158.108 48.4991Z" stroke="#505071" stroke-width="3.97" stroke-linecap="round" stroke-linejoin="round"></path><path d="M144.119 34.4999H93.738C90.6476 34.4999 88.1423 37.0051 88.1423 40.0955V45.7013C88.1423 48.7917 90.6476 51.2969 93.738 51.2969H144.119C147.209 51.2969 149.715 48.7917 149.715 45.7013V40.0955C149.715 37.0051 147.209 34.4999 144.119 34.4999Z" stroke="#505071" stroke-width="3.97" stroke-linecap="round" stroke-linejoin="round"></path><path d="M201.621 149.281C195.298 149.281 189.076 148.019 183.299 145.625C179.875 144.191 176.612 142.373 173.582 140.161L172.108 139.09L171.552 138.686L169.522 140.161C161.381 146.08 151.563 149.281 141.483 149.281H141.099V171.038C141.099 171.654 141.109 172.28 141.129 172.896C141.473 181.573 144.16 189.805 148.685 196.824C151.402 201.046 154.775 204.834 158.704 208.026C162.401 211.036 166.593 213.52 171.178 215.338L171.552 215.49H171.562L171.936 215.338C190.086 208.127 202.005 190.572 202.005 171.038V149.281H201.621ZM189.49 171.088L183.299 177.28L172.108 188.461L169.512 191.057C168.744 191.835 167.704 192.259 166.613 192.259H166.603C165.512 192.259 164.472 191.825 163.704 191.057L154.098 181.462C152.503 179.856 152.503 177.25 154.098 175.644C155.704 174.038 158.31 174.038 159.916 175.644L166.603 182.34L172.108 176.836L183.299 165.644L183.673 165.271C185.279 163.665 187.884 163.665 189.49 165.271C191.086 166.876 191.086 169.482 189.49 171.088Z" stroke="#505071" stroke-width="3.97" stroke-linecap="round" stroke-linejoin="round"></path><path d="M189.491 171.088L183.299 177.28L172.108 188.461L169.512 191.057C168.744 191.835 167.704 192.259 166.613 192.259H166.603C165.512 192.259 164.472 191.825 163.704 191.057L154.099 181.462C152.503 179.856 152.503 177.25 154.099 175.644C155.704 174.038 158.31 174.038 159.916 175.644L166.603 182.34L172.108 176.836L183.299 165.644L183.673 165.271C185.279 163.665 187.885 163.665 189.491 165.271C191.086 166.876 191.086 169.482 189.491 171.088Z" stroke="#505071" stroke-width="3.97" stroke-linecap="round" stroke-linejoin="round"></path></g><defs><clipPath id="clip0_4906_2386"><rect width="154.446" height="185" fill="white" transform="translate(49.5586 32.5)"></rect></clipPath></defs></svg> 