<?xml version="1.0" encoding="UTF-8"?> <svg xmlns="http://www.w3.org/2000/svg" width="250" height="250" viewBox="0 0 250 250" fill="none"><g clip-path="url(#clip0_4915_13232)"><path d="M84.4241 71.0501C81.9741 73.1001 79.8441 75.3901 78.0141 77.9201C76.2641 80.3501 74.8841 82.9601 73.8841 85.7501L72.3141 84.1801L57.5141 69.4001L48.8541 78.0501C46.1441 80.7501 41.4941 78.8301 41.4941 75.0001V47.0901H41.5041V45.8601C41.5141 43.0801 43.7841 40.8201 46.5841 40.8201H80.7841C82.7941 40.8201 83.7741 43.2201 82.3941 44.6001L70.1541 56.8101L84.4241 71.0501Z" fill="#D8275E"></path><path d="M78.8439 194C81.5439 196.71 79.6339 201.35 75.7939 201.35H47.8339V201.32H45.9739C43.5039 201.32 41.5039 199.32 41.5039 196.87V162.13C41.5039 160.13 43.9139 159.15 45.2939 160.52L57.5339 172.74L71.8239 158.47L72.1139 158.19C72.9939 160.39 74.0539 162.43 75.3039 164.31C77.4339 167.48 79.9739 170.25 82.9539 172.61L70.1839 185.36L78.8439 194Z" fill="#D8275E"></path><path d="M202.344 47.1101H202.354V75.0201C202.354 78.8601 197.724 80.7701 195.004 78.0701L186.344 69.4301L171.794 83.9601L167.074 88.6701C166.104 84.9101 164.554 81.4401 162.454 78.2601C161.124 76.2201 159.604 74.3401 157.894 72.6201L173.714 56.8301L161.474 44.6101C160.094 43.2301 161.084 40.8301 163.094 40.8301H197.894C200.354 40.8301 202.354 42.8301 202.354 45.2901H202.344V47.1101Z" fill="#D8275E"></path><path d="M202.354 162.13V196.88C202.354 199.34 200.344 201.34 197.894 201.34H168.074C164.234 201.34 162.314 196.72 165.034 194L173.704 185.36L159.694 171.37C161.334 169.87 162.794 168.22 164.074 166.42C166.384 163.19 168.024 159.54 168.984 155.46L170.584 157.05L186.314 172.75L198.554 160.54C199.934 159.15 202.344 160.13 202.344 162.13H202.354Z" fill="#D8275E"></path><path d="M104.224 92.5401C100.384 97.1101 96.5443 101.67 92.7043 106.25L61.3843 74.9901L52.7243 83.6401C50.0043 86.3401 45.3643 84.4301 45.3643 80.5901V51.4601C45.3643 48.6501 47.6343 46.3901 50.4443 46.3901H84.6243C86.6343 46.3901 87.6143 48.8001 86.2343 50.1801L73.9943 62.3901L88.7943 77.1601L104.194 92.5401H104.204H104.224Z" stroke="#505071" stroke-width="3.97" stroke-linecap="round" stroke-linejoin="round"></path><path d="M88.9343 176.09L88.5743 176.45L74.0543 190.95L82.7243 199.59C85.4343 202.29 83.5143 206.92 79.6743 206.92H51.7043V206.9H49.8543C47.3843 206.9 45.3843 204.89 45.3843 202.45V167.71C45.3843 165.7 47.8043 164.72 49.1843 166.1L61.4143 178.31L75.7143 164.06L77.9243 161.85C78.7643 163.88 79.7743 165.77 80.9343 167.53C83.1443 170.82 85.8143 173.68 88.9343 176.09Z" stroke="#505071" stroke-width="3.97" stroke-linecap="round" stroke-linejoin="round"></path><path d="M206.234 52.6902H206.244V80.6002C206.244 84.4302 201.604 86.3502 198.894 83.6502L190.234 74.9902L175.684 89.5402L172.834 92.3802C171.864 88.4302 170.284 84.8002 168.084 81.4802C166.844 79.5702 165.424 77.7902 163.834 76.1602L177.614 62.4102L165.364 50.1902C163.994 48.8202 164.964 46.4102 166.984 46.4102H201.784C204.244 46.4102 206.244 48.4202 206.244 50.8602H206.234V52.6902Z" stroke="#505071" stroke-width="3.97" stroke-linecap="round" stroke-linejoin="round"></path><path d="M206.234 167.71V202.47C206.234 204.92 204.224 206.91 201.774 206.91H171.954C168.114 206.92 166.194 202.29 168.914 199.59L177.574 190.95L163.084 176.47C165.654 174.49 167.864 172.2 169.704 169.63C171.394 167.26 172.734 164.67 173.704 161.86L190.194 178.32L202.424 166.11C203.804 164.72 206.224 165.7 206.224 167.71H206.234Z" stroke="#505071" stroke-width="3.97" stroke-linecap="round" stroke-linejoin="round"></path><path d="M170.014 146.28C169.984 141.67 169.234 137.45 167.774 133.55C166.374 129.66 164.144 126.17 161.124 123.06C158.094 119.94 154.204 117.19 149.454 114.89C147.584 113.97 145.554 113.12 143.364 112.35C140.024 111.16 136.324 110.15 132.274 109.29L127.454 108.27V87.2201C129.524 87.7601 131.214 88.6201 132.564 89.7501C134.104 91.0301 135.244 92.6101 135.984 94.4801C136.524 95.8101 136.854 97.2901 136.984 98.9301H168.364C168.344 95.2901 167.924 91.8701 167.074 88.6701C166.104 84.9101 164.554 81.4401 162.454 78.2601C161.124 76.2201 159.604 74.3401 157.894 72.6201C154.634 69.3301 150.674 66.6301 146.004 64.4701C140.574 62.0101 134.384 60.4601 127.434 59.8801V46.0601H111.384V60.1601C105.544 60.8801 100.194 62.3101 95.294 64.4301C91.174 66.2401 87.544 68.4401 84.424 71.0501C81.974 73.1001 79.844 75.3901 78.014 77.9201C76.264 80.3501 74.884 82.9601 73.884 85.7501C72.534 89.5101 71.864 93.6001 71.874 98.0001C71.854 107.42 74.884 114.85 81.024 120.31C85.934 124.63 92.284 127.95 100.074 130.29C102.064 130.9 104.154 131.44 106.334 131.91L111.394 133V155.11C110.824 154.93 110.244 154.72 109.694 154.48C107.684 153.6 105.974 152.45 104.594 151.03C103.894 150.34 103.294 149.58 102.754 148.76C101.104 146.26 100.164 143.16 99.984 139.46H68.814C68.844 146.61 69.944 152.86 72.114 158.19C72.994 160.39 74.054 162.43 75.304 164.31C77.434 167.48 79.974 170.25 82.954 172.61C86.004 175.05 89.514 177.05 93.464 178.63C98.814 180.75 104.804 182.16 111.394 182.81V196.81H127.454V183.07C134.934 182.59 141.514 181.21 147.204 178.98C152.134 177.04 156.294 174.51 159.694 171.37C161.334 169.87 162.794 168.22 164.074 166.42C166.384 163.19 168.024 159.54 168.984 155.46C169.664 152.61 170.014 149.54 170.034 146.28H170.014ZM111.394 103.67C110.834 103.36 110.284 103.05 109.824 102.71C108.484 101.77 107.494 100.72 106.874 99.5901C106.294 98.4301 106.024 97.1001 106.104 95.6601C106.144 93.8901 106.664 92.3101 107.684 90.9301C108.554 89.7901 109.774 88.8501 111.394 88.1301V103.67ZM134.644 151.54C133.424 153.07 131.644 154.27 129.264 155.14C128.714 155.34 128.104 155.51 127.464 155.68V137.06C128.014 137.27 128.544 137.48 129.044 137.69C131.674 138.8 133.574 140.07 134.694 141.48C135.874 142.84 136.474 144.46 136.524 146.31C136.484 148.27 135.844 150.02 134.644 151.54Z" fill="#FFC743"></path><path d="M117.024 106.88C116.464 106.58 115.914 106.26 115.454 105.93C114.114 104.99 113.124 103.94 112.504 102.81C111.924 101.65 111.654 100.32 111.734 98.8801C111.774 97.1101 112.304 95.5301 113.324 94.1501C114.184 93.0101 115.414 92.0701 117.034 91.3401V106.88H117.024ZM140.274 154.76C139.044 156.29 137.264 157.48 134.894 158.36C134.334 158.56 133.734 158.73 133.084 158.9V140.29C133.634 140.5 134.164 140.71 134.664 140.92C137.294 142.03 139.194 143.29 140.314 144.7C141.494 146.06 142.094 147.68 142.144 149.53C142.104 151.5 141.464 153.24 140.264 154.77L140.274 154.76Z" stroke="#505071" stroke-width="3.97" stroke-linecap="round" stroke-linejoin="round"></path><path d="M175.664 149.5C175.644 154.01 174.994 158.13 173.704 161.86C172.734 164.67 171.394 167.26 169.704 169.63C167.864 172.2 165.654 174.49 163.084 176.47C160.144 178.76 156.734 180.66 152.834 182.19C147.144 184.43 140.564 185.8 133.084 186.28V200.03H117.024V186.02C110.434 185.37 104.444 183.96 99.0938 181.84C95.2938 180.32 91.9038 178.41 88.9338 176.09C85.8138 173.68 83.1438 170.82 80.9338 167.53C79.7738 165.77 78.7638 163.88 77.9238 161.85C75.6338 156.42 74.4738 150.03 74.4438 142.67H105.614C105.804 146.38 106.734 149.47 108.384 151.97C108.674 152.41 108.974 152.83 109.314 153.23C110.854 155.13 112.854 156.62 115.334 157.69C115.874 157.93 116.464 158.14 117.024 158.32V136.21L111.964 135.12C101.254 132.8 92.8238 128.94 86.6638 123.53C80.5138 118.07 77.4838 110.63 77.5038 101.21C77.4838 93.55 79.5238 86.85 83.6538 81.13C87.8138 75.36 93.5838 70.87 100.924 67.64C105.824 65.52 111.174 64.09 117.014 63.37V49.27H133.074V63.1C140.014 63.68 146.214 65.23 151.634 67.7C156.454 69.92 160.524 72.73 163.834 76.16C165.424 77.79 166.844 79.57 168.084 81.48C170.284 84.8 171.864 88.43 172.834 92.38C173.594 95.44 173.974 98.7 173.994 102.15H142.614C142.564 101.5 142.474 100.88 142.364 100.28C141.784 97.24 140.404 94.81 138.204 92.97C136.844 91.84 135.154 90.98 133.084 90.44V111.49L137.904 112.51C144.604 113.93 150.334 115.78 155.084 118.11C159.844 120.42 163.724 123.16 166.754 126.28C169.774 129.39 172.004 132.88 173.404 136.77C174.874 140.67 175.614 144.89 175.654 149.5H175.664Z" stroke="#505071" stroke-width="3.97" stroke-linecap="round" stroke-linejoin="round"></path></g><defs><clipPath id="clip0_4915_13232"><rect width="167.01" height="194" fill="white" transform="translate(41.4941 28)"></rect></clipPath></defs></svg> 