<?xml version="1.0" encoding="UTF-8"?> <svg xmlns="http://www.w3.org/2000/svg" width="251" height="250" viewBox="0 0 251 250" fill="none"><g clip-path="url(#clip0_4945_1014)"><path d="M176 93.2659H67.7977C61.1609 93.2659 55.7769 98.5936 55.7769 105.161V188.427C55.7769 194.994 61.1609 200.322 67.7977 200.322H176C182.637 200.322 188.021 194.994 188.021 188.427V105.161C188.021 98.5936 182.637 93.2659 176 93.2659Z" fill="#FFC743"></path><path d="M67.7979 63.5281V93.2659H91.8395V63.5281C91.8395 47.117 105.292 33.7903 121.892 33.7903C138.491 33.7903 151.944 47.1022 151.944 63.5281V93.2659H175.985V63.5281C175.97 33.9526 151.75 10 121.892 10C92.0334 10 67.7979 33.9674 67.7979 63.5281Z" fill="#FFC743"></path><path d="M121.906 146.794C128.543 146.794 133.927 141.466 133.927 134.899C133.927 128.332 128.543 123.004 121.906 123.004C115.269 123.004 109.885 128.332 109.885 134.899C109.885 141.466 115.269 146.794 121.906 146.794Z" fill="#E2A427"></path><path d="M121.906 176.532C118.58 176.532 115.911 173.861 115.911 170.599V146.809C115.911 143.518 118.61 140.876 121.906 140.876C125.202 140.876 127.902 143.547 127.902 146.809V170.599C127.902 173.89 125.202 176.532 121.906 176.532Z" fill="#E2A427"></path><path d="M179.803 99.0068H71.6009C64.9641 99.0068 59.5801 104.335 59.5801 110.902V194.183C59.5801 200.75 64.9641 206.078 71.6009 206.078H179.803C186.44 206.078 191.824 200.75 191.824 194.183V110.902C191.824 104.335 186.44 99.0068 179.803 99.0068ZM131.511 151.059C131.645 151.531 131.705 152.018 131.705 152.535V176.325C131.705 179.616 129.006 182.258 125.709 182.258C122.413 182.258 119.699 179.587 119.699 176.325V152.535C119.699 152.018 119.759 151.517 119.893 151.044C116.194 149.022 113.689 145.112 113.689 140.64C113.689 134.072 119.073 128.745 125.709 128.745C132.346 128.745 137.73 134.072 137.73 140.64C137.73 145.126 135.225 149.037 131.511 151.059Z" stroke="#505071" stroke-width="3.97" stroke-linecap="round" stroke-linejoin="round"></path><path d="M71.6011 69.2542V98.992H95.6427V69.2542C95.6427 52.843 109.095 39.5163 125.695 39.5163C142.294 39.5163 155.747 52.8283 155.747 69.2542V98.992H179.788V69.2542C179.788 39.6934 155.568 15.7261 125.695 15.7261C95.8217 15.7261 71.6011 39.7082 71.6011 69.2542Z" stroke="#505071" stroke-width="3.97" stroke-linecap="round" stroke-linejoin="round"></path><path d="M131.511 151.059C131.645 151.531 131.705 152.018 131.705 152.535V176.325C131.705 179.616 129.005 182.258 125.709 182.258C122.413 182.258 119.699 179.587 119.699 176.325V152.535C119.699 152.018 119.759 151.517 119.893 151.044C116.194 149.022 113.688 145.112 113.688 140.64C113.688 134.072 119.072 128.745 125.709 128.745C132.346 128.745 137.73 134.072 137.73 140.64C137.73 145.126 135.225 149.037 131.511 151.059Z" stroke="#505071" stroke-width="3.97" stroke-linecap="round" stroke-linejoin="round"></path></g><defs><clipPath id="clip0_4945_1014"><rect width="139" height="199" fill="white" transform="translate(55.7769 10)"></rect></clipPath></defs></svg> 