<?xml version="1.0" encoding="UTF-8"?> <svg xmlns="http://www.w3.org/2000/svg" width="251" height="250" viewBox="0 0 251 250" fill="none"><g clip-path="url(#clip0_4908_7622)"><path d="M107.238 168.83C106.748 165.8 104.248 163.51 101.178 163.5C87.3382 163.44 66.6982 163.44 62.1582 150.19C61.2682 147.59 61.3582 144.81 60.3882 142.26C50.9782 141.9 41.7482 133.8 36.1682 124.45C32.9582 119.07 31.8182 112.82 32.5482 106.4C33.1482 101.15 32.6982 97.4901 33.7982 92.2301C39.8482 63.3001 64.5082 47.4501 91.8782 39.6301C94.2082 38.9701 98.0882 40.9301 100.338 40.5701C101.688 40.3501 103.318 38.9001 104.718 38.3501C118.228 33.0701 138.288 34.1301 151.338 41.0301C152.848 41.8301 158.278 45.9301 159.128 46.0701C160.048 46.2201 162.198 45.5801 163.718 45.6901C179.628 46.8101 191.948 57.2001 198.978 72.2901C200.548 75.6501 201.688 80.6401 203.258 83.5701C203.948 84.8601 205.228 85.2601 205.988 86.2001C215.408 97.8201 214.298 115.97 208.508 130.32C207.468 132.91 203.898 138.38 203.648 140.49C203.478 141.93 204.668 144.03 204.968 145.67C208.548 164.89 205.598 166.35 194.788 178.3C193.238 180.02 191.728 181.53 190.858 183.84C187.668 192.24 186.628 198.07 184.228 205.9C181.608 214.41 170.988 214.83 166.398 207.56C161.228 199.38 157.958 185.13 149.008 180.66C144.178 178.25 141.598 179.93 137.018 179.84C124.438 179.6 109.008 179.62 107.248 168.84H107.238V168.83Z" fill="#37D3CF"></path><path d="M111.818 88.8401C111.858 89.6801 111.578 90.4701 111.018 91.0901C110.458 91.7101 109.688 92.0701 108.858 92.1101H108.708C107.058 92.1101 105.678 90.8201 105.598 89.1501C105.578 88.7801 105.628 88.4201 105.738 88.0801L99.0482 81.4001C98.8082 81.4801 98.5482 81.5301 98.2882 81.5401H98.1282C97.3582 81.5401 96.6282 81.2601 96.0482 80.7401C95.4282 80.1801 95.0682 79.4101 95.0282 78.5801C94.9882 77.7501 95.2682 76.9501 95.8282 76.3401C96.3882 75.7201 97.1482 75.3601 97.9782 75.3201C98.0382 75.3201 98.0982 75.3201 98.1582 75.3201C99.8182 75.3201 101.158 76.6301 101.248 78.2801C101.268 78.6501 101.218 79.0101 101.108 79.3501L107.788 86.0401C108.028 85.9601 108.288 85.9101 108.548 85.9001C109.378 85.8501 110.178 86.1401 110.798 86.7001C111.418 87.2601 111.778 88.0201 111.818 88.8501V88.8401Z" fill="#00A3A0"></path><path d="M194.938 133.84C194.978 134.67 194.698 135.47 194.138 136.08C193.888 136.36 193.598 136.58 193.278 136.74V140.87L185.868 148.28H178.608C178.118 149.22 177.158 149.88 176.018 149.93C175.968 149.94 175.918 149.94 175.858 149.94C175.088 149.94 174.358 149.65 173.778 149.13C173.158 148.57 172.798 147.81 172.758 146.98C172.668 145.26 173.998 143.8 175.708 143.71C176.558 143.68 177.338 143.96 177.958 144.51C178.238 144.76 178.458 145.05 178.618 145.37H184.668L190.368 139.66V136.74C190.138 136.62 189.928 136.48 189.738 136.3C189.118 135.74 188.758 134.98 188.718 134.15C188.678 133.32 188.958 132.52 189.518 131.9C190.078 131.29 190.838 130.92 191.668 130.88H191.788C192.578 130.88 193.328 131.16 193.918 131.68C194.538 132.24 194.898 133.01 194.938 133.84Z" fill="#00A3A0"></path><path d="M184.419 153.75C184.459 154.58 184.179 155.37 183.619 155.99C183.369 156.27 183.079 156.49 182.759 156.66V168.56L180.049 171.27C180.129 171.51 180.179 171.77 180.189 172.03C180.229 172.86 179.949 173.66 179.389 174.28C178.829 174.9 178.069 175.26 177.239 175.3H177.079C175.429 175.3 174.049 174.01 173.969 172.34C173.929 171.51 174.209 170.72 174.769 170.1C175.329 169.48 176.089 169.12 176.929 169.08H177.039C177.369 169.08 177.689 169.13 177.989 169.22L179.859 167.36V156.66C178.909 156.16 178.249 155.19 178.199 154.06C178.159 153.23 178.439 152.43 178.999 151.81C179.559 151.19 180.319 150.83 181.159 150.79H181.269C182.949 150.79 184.339 152.07 184.419 153.75Z" fill="#00A3A0"></path><path d="M138.629 100.4C138.709 102.11 137.389 103.58 135.669 103.66H135.519C133.869 103.66 132.489 102.36 132.409 100.7C132.339 99.4501 133.029 98.3401 134.059 97.8001V84.6801L124.319 74.9401V61.3201C124.089 61.2101 123.879 61.0601 123.679 60.8801C123.069 60.3201 122.699 59.5601 122.659 58.7201C122.619 57.8901 122.899 57.1001 123.459 56.4801C124.019 55.8601 124.789 55.5001 125.619 55.4601C126.449 55.4201 127.239 55.7001 127.859 56.2601C128.479 56.8201 128.839 57.5801 128.879 58.4101C128.949 59.6601 128.259 60.7701 127.229 61.3101V73.7301L136.969 83.4801V97.7801C137.199 97.9001 137.409 98.0501 137.609 98.2301C138.229 98.7901 138.589 99.5601 138.629 100.39V100.4Z" fill="#00A3A0"></path><path d="M102.538 111.82H72.1085L64.6285 104.34C64.3285 104.43 64.0185 104.48 63.7085 104.48C62.9585 104.48 62.2185 104.21 61.6185 103.68C60.9985 103.12 60.6385 102.35 60.5985 101.52C60.5585 100.69 60.8385 99.8901 61.3985 99.2801C62.5485 98.0001 64.5285 97.9001 65.7985 99.0601C66.4185 99.6201 66.7785 100.38 66.8185 101.21C66.8385 101.58 66.7885 101.94 66.6785 102.28L73.3085 108.91H101.338L112.998 97.2401C112.918 97.0001 112.868 96.7401 112.858 96.4801C112.818 95.6501 113.108 94.8601 113.658 94.2401C114.218 93.6201 114.988 93.2601 115.818 93.2201C116.648 93.1701 117.448 93.4601 118.058 94.0201C118.678 94.5801 119.038 95.3401 119.078 96.1701C119.168 97.8901 117.838 99.3501 116.128 99.4401H115.968C115.658 99.4401 115.348 99.3901 115.058 99.3001L102.538 111.82Z" fill="#00A3A0"></path><path d="M121.068 132.42V120.9C120.128 120.4 119.468 119.44 119.408 118.3C119.328 116.59 120.648 115.12 122.368 115.04H122.468C124.158 115.04 125.548 116.31 125.628 117.99C125.678 118.82 125.388 119.62 124.828 120.24C124.588 120.52 124.298 120.74 123.978 120.9V133.63L120.218 137.4C120.288 137.64 120.338 137.89 120.348 138.15C120.388 138.99 120.108 139.78 119.548 140.4C118.988 141.02 118.228 141.38 117.388 141.42H117.228C116.458 141.42 115.728 141.14 115.148 140.62C114.528 140.06 114.168 139.3 114.128 138.46C114.088 137.63 114.368 136.84 114.928 136.22C115.488 135.6 116.248 135.24 117.078 135.2H117.208C117.538 135.2 117.858 135.25 118.158 135.34L121.068 132.42Z" fill="#00A3A0"></path><path d="M100.328 141.79C100.368 142.62 100.088 143.42 99.5284 144.03C98.9684 144.65 98.1984 145.01 97.3684 145.05C97.3184 145.06 97.2684 145.06 97.2084 145.06C96.4384 145.06 95.6984 144.77 95.1284 144.25C94.5084 143.69 94.1484 142.93 94.1084 142.1C94.0384 140.85 94.7284 139.74 95.7584 139.2V134.77L110.288 120.25V113.3C110.058 113.19 109.848 113.04 109.648 112.86C109.038 112.3 108.668 111.53 108.628 110.7C108.588 109.87 108.878 109.07 109.428 108.46C109.988 107.84 110.758 107.48 111.588 107.44C111.658 107.44 111.718 107.44 111.788 107.44C113.428 107.44 114.768 108.76 114.848 110.4C114.898 111.23 114.608 112.03 114.048 112.65C113.798 112.92 113.518 113.15 113.198 113.31V121.46L98.6684 135.99V139.21C99.6084 139.7 100.268 140.66 100.328 141.8V141.79Z" fill="#00A3A0"></path><path d="M62.4883 86.8301C61.9283 87.4401 61.1683 87.8101 60.3383 87.8501H60.1783C58.5283 87.8501 57.1483 86.5501 57.0683 84.8901C56.9783 83.1701 58.3083 81.7101 60.0283 81.6201C60.8583 81.5801 61.6483 81.8701 62.2683 82.4301C62.5483 82.6701 62.7683 82.9601 62.9283 83.2801H70.7683L87.0283 99.5401H96.8383C96.9483 99.3101 97.0983 99.1001 97.2783 98.9001C97.8383 98.2901 98.6083 97.9201 99.4383 97.8801C99.4983 97.8801 99.5583 97.8801 99.6183 97.8801C101.258 97.8801 102.618 99.1901 102.698 100.85C102.788 102.56 101.458 104.03 99.7483 104.11C99.6983 104.12 99.6383 104.12 99.5883 104.12C98.4083 104.12 97.3683 103.45 96.8483 102.46H85.8283L69.5683 86.2001H62.9283C62.8183 86.4301 62.6683 86.6401 62.4883 86.8401V86.8301Z" fill="#00A3A0"></path><path d="M52.2386 87.4801C53.5086 88.6301 53.6086 90.6101 52.4586 91.8801C51.8986 92.5001 51.1386 92.8601 50.3086 92.9001H50.1486C49.3686 92.9001 48.6386 92.6201 48.0586 92.1001C46.7886 90.9501 46.6886 88.9701 47.8386 87.7001C48.0986 87.4101 48.3986 87.1801 48.7286 87.0201V81.2901L56.8886 73.1301H64.6686C65.1586 72.1701 66.1186 71.5001 67.2686 71.4401C68.9986 71.3401 70.4486 72.6801 70.5386 74.4001C70.5786 75.2301 70.2986 76.0201 69.7386 76.6401C69.1786 77.2601 68.4086 77.6201 67.5786 77.6601H67.4186C66.6486 77.6601 65.9086 77.3701 65.3386 76.8501C65.0486 76.5901 64.8186 76.2901 64.6586 75.9601H58.0686L51.5686 82.4601V87.0101C51.8086 87.1301 52.0286 87.2801 52.2386 87.4701V87.4801Z" fill="#00A3A0"></path><path d="M138.569 66.9201L150.609 78.9601V100.75L141.339 110.02C141.419 110.26 141.469 110.52 141.479 110.78C141.519 111.61 141.239 112.41 140.679 113.02C140.119 113.64 139.349 114 138.519 114.04C138.469 114.04 138.419 114.04 138.359 114.04C137.589 114.04 136.849 113.75 136.279 113.23C135.659 112.67 135.299 111.91 135.259 111.08C135.219 110.25 135.499 109.45 136.059 108.83C136.619 108.22 137.379 107.85 138.209 107.81C138.269 107.81 138.329 107.8 138.389 107.8C138.699 107.8 139.009 107.85 139.289 107.94L147.699 99.5301V80.1501L136.509 68.9601C136.269 69.0401 136.009 69.0901 135.749 69.1001H135.589C133.949 69.1001 132.569 67.8101 132.479 66.1501C132.399 64.4301 133.719 62.9601 135.439 62.8801H135.589C136.359 62.8801 137.109 63.1601 137.679 63.6801C138.299 64.2401 138.659 65.0001 138.709 65.8401C138.729 66.2101 138.679 66.5701 138.569 66.9101V66.9201Z" fill="#00A3A0"></path><path d="M153.189 70.0701C153.269 71.7901 151.949 73.2501 150.229 73.3401H150.069C148.429 73.3401 147.049 72.0501 146.959 70.3801C146.899 69.1301 147.599 68.0101 148.649 67.4701V61.5701L139.499 52.4101H112.639L95.1285 69.9201C95.2185 70.1801 95.2685 70.4401 95.2785 70.7201C95.3185 71.5501 95.0285 72.3501 94.4785 72.9601C93.9185 73.5801 93.1485 73.9401 92.3185 73.9801C92.2685 73.9801 92.2185 73.9801 92.1685 73.9801C90.5185 73.9801 89.1385 72.6801 89.0585 71.0201C88.9685 69.3001 90.2985 67.8401 92.0085 67.7501C92.3885 67.7301 92.7685 67.7801 93.1185 67.8901L111.459 49.5601H140.679L151.499 60.3801V67.4401C152.459 67.9301 153.129 68.9101 153.189 70.0601V70.0701Z" fill="#00A3A0"></path><path d="M153.708 59.9301C153.618 58.2101 154.948 56.7501 156.658 56.6601C156.718 56.6601 156.778 56.6501 156.838 56.6501C158.058 56.6501 159.098 57.3501 159.598 58.3801H169.018L190.428 79.7901V95.1701C191.368 95.6601 192.028 96.6201 192.088 97.7601C192.168 99.4801 190.848 100.94 189.128 101.03H188.978C187.328 101.03 185.948 99.7401 185.868 98.0701C185.798 96.8301 186.488 95.7201 187.518 95.1701V81.0001L167.818 61.2901H159.528C159.018 62.1901 158.078 62.8301 156.968 62.8801C156.918 62.8901 156.868 62.8901 156.818 62.8901C155.168 62.8901 153.788 61.5901 153.708 59.9301Z" fill="#00A3A0"></path><path d="M167.868 90.3901L161.698 96.5601C161.778 96.8001 161.818 97.0601 161.838 97.3201C161.878 98.1501 161.588 98.9501 161.028 99.5701C160.468 100.18 159.708 100.55 158.878 100.59H158.718C157.078 100.59 155.698 99.2901 155.608 97.6301C155.528 95.9201 156.848 94.4501 158.568 94.3701C158.628 94.3701 158.688 94.3601 158.748 94.3601C159.058 94.3601 159.358 94.4101 159.648 94.5001L164.958 89.1901V73.7001L163.458 72.2001C163.218 72.2801 162.958 72.3301 162.698 72.3401H162.548C160.898 72.3401 159.518 71.0401 159.438 69.3801C159.348 67.6601 160.678 66.1901 162.388 66.1101C162.448 66.1101 162.508 66.1101 162.568 66.1101C163.338 66.1101 164.068 66.4001 164.638 66.9201C165.258 67.4801 165.618 68.2501 165.658 69.0801C165.678 69.4501 165.628 69.8001 165.518 70.1401L167.868 72.4901V90.3901Z" fill="#00A3A0"></path><path d="M181.809 82.46C181.879 83.71 181.189 84.83 180.149 85.38V96.84L174.999 102H171.749C171.629 102.23 171.489 102.44 171.309 102.63C170.749 103.25 169.989 103.61 169.159 103.65C169.099 103.65 169.049 103.65 168.999 103.65C168.229 103.65 167.489 103.36 166.909 102.84C166.299 102.28 165.929 101.52 165.889 100.69C165.849 99.86 166.129 99.06 166.689 98.44C167.249 97.82 168.019 97.46 168.849 97.42C168.909 97.42 168.969 97.41 169.029 97.41C169.789 97.41 170.519 97.7 171.089 98.22C171.369 98.47 171.589 98.76 171.749 99.08H173.789L177.249 95.62V85.37C176.309 84.87 175.649 83.9 175.589 82.77C175.509 81.05 176.829 79.59 178.549 79.5C178.609 79.5 178.669 79.5 178.729 79.5C180.379 79.5 181.719 80.81 181.809 82.46Z" fill="#00A3A0"></path><path d="M202.508 102.93V122.34L196.418 128.43H187.358C187.248 128.66 187.098 128.87 186.918 129.07C186.358 129.68 185.588 130.05 184.758 130.09H184.608C182.958 130.09 181.578 128.8 181.498 127.13C181.408 125.42 182.738 123.95 184.448 123.87H184.598C185.788 123.87 186.828 124.53 187.348 125.52H195.218L199.608 121.13V104.14L196.878 101.41C196.638 101.49 196.378 101.54 196.118 101.55C196.068 101.56 196.018 101.56 195.968 101.56C194.318 101.56 192.938 100.26 192.858 98.6001C192.768 96.8801 194.098 95.4201 195.808 95.3301C195.868 95.3301 195.928 95.3201 195.988 95.3201C197.638 95.3201 198.988 96.6301 199.078 98.2901C199.098 98.6601 199.048 99.0201 198.938 99.3601L202.508 102.93Z" fill="#00A3A0"></path><path d="M165.018 116.43L161.068 120.38C161.148 120.62 161.198 120.88 161.208 121.14C161.298 122.85 159.968 124.32 158.258 124.41H158.098C156.448 124.41 155.068 123.11 154.988 121.45C154.908 119.73 156.228 118.27 157.948 118.18C158.318 118.17 158.678 118.21 159.018 118.33L163.818 113.52H187.588L190.988 116.91C191.228 116.83 191.488 116.78 191.748 116.77H191.858C193.508 116.77 194.928 118.06 195.008 119.73C195.098 121.45 193.768 122.91 192.058 123H191.898C190.248 123 188.868 121.7 188.788 120.04C188.768 119.67 188.818 119.31 188.928 118.97L186.388 116.43H165.018Z" fill="#00A3A0"></path><path d="M153.558 113.77C153.638 114.01 153.688 114.27 153.698 114.53C153.738 115.36 153.458 116.16 152.898 116.77C152.338 117.39 151.568 117.75 150.738 117.8H150.578C149.808 117.8 149.078 117.52 148.498 116.99C147.878 116.44 147.518 115.67 147.478 114.84C147.438 114.01 147.718 113.21 148.278 112.59C148.838 111.98 149.598 111.62 150.428 111.57H150.548C150.878 111.57 151.188 111.62 151.498 111.72L157.208 106.01H188.728C188.838 105.78 188.988 105.57 189.168 105.37C189.728 104.76 190.488 104.39 191.318 104.35C193.048 104.25 194.498 105.59 194.588 107.31C194.668 109.02 193.348 110.49 191.628 110.57C191.578 110.58 191.528 110.58 191.478 110.58C190.698 110.58 189.968 110.3 189.388 109.77C189.118 109.52 188.888 109.24 188.728 108.92H158.408L153.558 113.77Z" fill="#00A3A0"></path><path d="M185.098 135.52C185.178 137.24 183.858 138.7 182.138 138.79C182.088 138.79 182.038 138.8 181.988 138.8C180.338 138.8 178.958 137.5 178.878 135.84C178.858 135.47 178.908 135.1 179.018 134.77L170.528 126.28C170.288 126.36 170.028 126.41 169.768 126.42C169.718 126.42 169.668 126.43 169.618 126.43C167.968 126.43 166.588 125.13 166.508 123.47C166.418 121.75 167.748 120.28 169.458 120.2H169.568C171.228 120.2 172.638 121.48 172.728 123.16C172.748 123.53 172.698 123.89 172.588 124.23L181.068 132.71C181.308 132.63 181.568 132.58 181.828 132.57H181.958C183.598 132.57 185.008 133.85 185.098 135.52Z" fill="#00A3A0"></path><path d="M50.3084 112.58C50.3484 113.41 50.0684 114.21 49.5084 114.82C48.9484 115.44 48.1784 115.8 47.3484 115.85H47.1884C46.4184 115.85 45.6884 115.57 45.1084 115.04C44.4884 114.48 44.1284 113.72 44.0884 112.89C44.0184 111.64 44.7084 110.53 45.7384 109.99V99.0201L51.6484 93.1201H67.9084C68.4084 92.1801 69.3684 91.5201 70.4984 91.4601C72.2284 91.3701 73.6784 92.7001 73.7684 94.4201C73.8084 95.2501 73.5184 96.0501 72.9684 96.6601C72.4084 97.2801 71.6384 97.6401 70.8084 97.6801C70.7584 97.6901 70.7084 97.6901 70.6484 97.6901C69.8784 97.6901 69.1384 97.4101 68.5684 96.8801C68.2984 96.6301 68.0684 96.3501 67.9084 96.0301H52.8484L48.6484 100.23V109.97C49.5984 110.47 50.2484 111.44 50.3084 112.58Z" fill="#00A3A0"></path><path d="M85.6783 121.55C85.7683 123.26 84.4383 124.73 82.7283 124.81C82.6683 124.82 82.6183 124.82 82.5683 124.82C81.3883 124.82 80.3383 124.15 79.8283 123.16H70.7283L63.8183 116.25C63.5783 116.33 63.3183 116.38 63.0583 116.39H62.8983C62.1283 116.39 61.3883 116.11 60.8083 115.59C60.1983 115.03 59.8283 114.26 59.7883 113.43C59.7483 112.6 60.0383 111.8 60.5883 111.19C61.2083 110.51 62.0583 110.16 62.9083 110.16C63.6483 110.16 64.3983 110.43 64.9883 110.97C65.9183 111.8 66.2183 113.07 65.8683 114.19L71.9283 120.25H79.8183C79.9283 120.02 80.0783 119.81 80.2583 119.61C80.8183 119 81.5883 118.63 82.4183 118.59H82.5483C84.2183 118.59 85.5983 119.87 85.6783 121.55Z" fill="#00A3A0"></path><path d="M80.9184 135C81.5384 135.56 81.8984 136.32 81.9384 137.15C81.9884 137.98 81.6984 138.78 81.1384 139.4C80.5784 140.02 79.8184 140.38 78.9884 140.42H78.8284C78.0584 140.42 77.3184 140.14 76.7384 139.62C76.1284 139.06 75.7584 138.29 75.7184 137.46C75.6984 137.09 75.7484 136.73 75.8584 136.39L73.6484 134.18H63.8084L53.3784 123.76V110.66C53.1484 110.54 52.9384 110.4 52.7484 110.22C52.1284 109.66 51.7684 108.89 51.7284 108.06C51.6384 106.35 52.9684 104.88 54.6784 104.8C55.5084 104.75 56.3084 105.04 56.9284 105.6C57.5384 106.16 57.9084 106.92 57.9484 107.75C57.9884 108.58 57.6984 109.38 57.1484 110C56.8984 110.27 56.6084 110.49 56.2884 110.66V122.56L65.0084 131.27H74.8584L77.9284 134.34C78.1684 134.26 78.4184 134.21 78.6784 134.2H78.7984C79.5884 134.2 80.3384 134.47 80.9184 135Z" fill="#00A3A0"></path><path d="M109.368 150.21C109.458 151.93 108.128 153.39 106.408 153.48H106.258C105.078 153.48 104.028 152.81 103.508 151.82H95.6683L87.2383 143.4V127.84L93.3483 121.74C93.2683 121.49 93.2283 121.23 93.2083 120.97C93.1283 119.25 94.4583 117.79 96.1683 117.7H96.2883C97.9683 117.7 99.3483 118.98 99.4383 120.66C99.4783 121.49 99.1883 122.29 98.6283 122.9C98.0783 123.52 97.3083 123.88 96.4783 123.92C96.4283 123.93 96.3683 123.93 96.3183 123.93C96.0083 123.93 95.6983 123.88 95.4083 123.79L90.1483 129.04V142.19L96.8683 148.91H103.508C104.008 147.97 104.968 147.31 106.098 147.26H106.108C107.838 147.2 109.288 148.5 109.368 150.21Z" fill="#00A3A0"></path><path d="M140.409 123C139.789 122.44 139.429 121.67 139.389 120.84C139.299 119.13 140.629 117.66 142.349 117.58H142.479C144.119 117.58 145.529 118.86 145.609 120.53C145.629 120.87 145.589 121.21 145.489 121.53L161.059 136.36V148.33C161.289 148.45 161.499 148.6 161.699 148.78C162.319 149.34 162.679 150.11 162.719 150.94C162.759 151.77 162.479 152.56 161.919 153.18C161.359 153.8 160.589 154.16 159.759 154.2C159.709 154.2 159.659 154.21 159.599 154.21C158.829 154.21 158.099 153.92 157.519 153.4C156.899 152.84 156.539 152.08 156.499 151.25C156.459 150.42 156.739 149.62 157.299 149C157.549 148.73 157.829 148.5 158.149 148.34V137.61L143.489 123.64C143.219 123.73 142.939 123.79 142.649 123.8H142.499C141.719 123.8 140.989 123.52 140.409 123Z" fill="#00A3A0"></path><path d="M143.488 131.26C144.098 131.81 144.458 132.58 144.508 133.41C144.548 134.24 144.258 135.04 143.698 135.66C143.458 135.93 143.168 136.15 142.848 136.32V145.93L132.908 155.86H118.688L105.499 142.67C105.259 142.75 104.999 142.8 104.739 142.81C104.689 142.81 104.628 142.82 104.578 142.82C102.938 142.82 101.558 141.52 101.468 139.85C101.428 139.02 101.718 138.23 102.268 137.61C102.828 136.99 103.598 136.63 104.428 136.59H104.558C105.348 136.59 106.089 136.86 106.669 137.39C107.289 137.95 107.648 138.71 107.688 139.55C107.708 139.92 107.658 140.28 107.548 140.61L119.889 152.95H131.709L139.938 144.72V136.32C139.708 136.2 139.498 136.05 139.298 135.87C138.688 135.32 138.328 134.55 138.278 133.72C138.238 132.89 138.528 132.09 139.088 131.48C139.638 130.86 140.408 130.5 141.238 130.45H141.358C142.138 130.45 142.898 130.73 143.488 131.26Z" fill="#00A3A0"></path><path d="M120.898 107.04C120.818 105.33 122.138 103.86 123.858 103.78C124.688 103.73 125.478 104.02 126.098 104.58C126.718 105.14 127.078 105.9 127.118 106.73C127.138 107.1 127.088 107.46 126.978 107.8L134.668 115.49V138.56L128.548 144.68C128.628 144.92 128.678 145.18 128.688 145.45C128.768 147.16 127.438 148.63 125.728 148.71C125.678 148.71 125.628 148.71 125.568 148.71C123.928 148.71 122.548 147.41 122.458 145.75C122.378 144.03 123.698 142.57 125.418 142.48H125.528C125.858 142.48 126.178 142.53 126.478 142.63L131.758 137.35V116.69L124.928 109.85C124.688 109.93 124.428 109.98 124.168 109.99H124.008C122.358 109.99 120.978 108.7 120.898 107.03V107.04Z" fill="#00A3A0"></path><path d="M164.958 162.35C165.578 162.9 165.938 163.67 165.988 164.5C166.028 165.33 165.738 166.13 165.178 166.75C164.628 167.36 163.858 167.73 163.028 167.77H162.868C162.098 167.77 161.358 167.49 160.778 166.96C160.508 166.72 160.288 166.43 160.118 166.11H158.318L147.748 155.54V144.05C147.528 143.93 147.308 143.78 147.118 143.61C146.498 143.05 146.138 142.28 146.098 141.45C146.058 140.62 146.338 139.83 146.898 139.21C147.458 138.59 148.218 138.23 149.058 138.19C149.878 138.16 150.678 138.43 151.298 138.99C151.918 139.55 152.278 140.31 152.318 141.15C152.358 141.97 152.078 142.77 151.518 143.39C151.268 143.67 150.978 143.89 150.658 144.05V154.34L159.528 163.2H160.118C160.238 162.97 160.388 162.76 160.568 162.56C161.118 161.95 161.888 161.59 162.718 161.54H162.838C163.618 161.54 164.378 161.82 164.958 162.35Z" fill="#00A3A0"></path><path d="M176.928 180.84C177.008 182.56 175.688 184.02 173.968 184.11H173.808C172.168 184.11 170.788 182.82 170.698 181.15C170.678 180.78 170.728 180.42 170.838 180.08L167.878 177.12V137.64L164.438 134.19C164.198 134.27 163.938 134.32 163.678 134.33H163.518C162.738 134.33 162.008 134.05 161.428 133.53C160.808 132.97 160.448 132.2 160.408 131.37C160.328 129.66 161.648 128.19 163.368 128.11H163.518C165.138 128.11 166.548 129.4 166.628 131.06C166.648 131.43 166.598 131.79 166.488 132.13L170.788 136.43V175.92L172.898 178.03C173.138 177.95 173.398 177.9 173.658 177.89H173.788C175.458 177.89 176.838 179.17 176.928 180.84Z" fill="#00A3A0"></path><path d="M128.608 89.76C129.218 90.32 129.588 91.08 129.628 91.91C129.668 92.74 129.378 93.54 128.828 94.16C128.268 94.78 127.498 95.14 126.668 95.18H126.508C125.738 95.18 124.998 94.9 124.428 94.38C123.808 93.82 123.448 93.05 123.408 92.22C123.388 91.85 123.428 91.49 123.538 91.15L111.608 79.22V67.14C110.668 66.64 110.008 65.67 109.948 64.54C109.868 62.82 111.188 61.36 112.908 61.27C113.738 61.22 114.538 61.52 115.158 62.08C115.768 62.63 116.128 63.4 116.178 64.23C116.218 65.06 115.928 65.86 115.368 66.47C115.128 66.75 114.838 66.97 114.518 67.14V78.02L125.598 89.1C125.838 89.02 126.098 88.97 126.358 88.96C126.418 88.96 126.478 88.96 126.538 88.96C127.298 88.96 128.038 89.25 128.608 89.77V89.76Z" fill="#00A3A0"></path><path d="M78.0686 78.9101C78.1586 80.6301 76.8286 82.0901 75.1186 82.1801H74.9586C73.3086 82.1801 71.9286 80.8901 71.8486 79.2201C71.7786 77.9701 72.4786 76.8401 73.5386 76.3101V64.5601L83.1586 54.9401H94.2286C94.3486 54.7001 94.4986 54.4701 94.6886 54.2701C95.2486 53.6601 96.0086 53.2901 96.8386 53.2501C97.6686 53.2101 98.4686 53.4901 99.0886 54.0501C99.6986 54.6101 100.069 55.3801 100.109 56.2101C100.189 57.9201 98.8686 59.3901 97.1486 59.4701H96.9886C95.7986 59.4701 94.7486 58.7801 94.2186 57.7701H84.3386L76.3786 65.7301V76.2801C77.3386 76.7701 78.0086 77.7501 78.0686 78.9001V78.9101Z" fill="#00A3A0"></path><path d="M94.2582 88.79C94.8682 89.34 95.2382 90.11 95.2782 90.94C95.3182 91.77 95.0282 92.57 94.4782 93.19C93.9182 93.8 93.1482 94.17 92.3182 94.21H92.1682C90.5182 94.21 89.1382 92.91 89.0582 91.25C89.0382 90.88 89.0882 90.52 89.1982 90.18L80.6782 81.67V69.48L83.5582 66.6C83.4782 66.36 83.4282 66.1 83.4182 65.84C83.3782 65.01 83.6582 64.21 84.2182 63.59C84.7782 62.98 85.5382 62.61 86.3682 62.57C87.2082 62.52 87.9982 62.81 88.6182 63.37C89.2382 63.93 89.5982 64.7 89.6382 65.53C89.7282 67.24 88.3982 68.71 86.6782 68.79C86.6282 68.79 86.5782 68.79 86.5282 68.79C86.2082 68.79 85.8982 68.74 85.6082 68.65L83.5882 70.67V80.45L91.2482 88.11C91.4882 88.03 91.7482 87.98 92.0082 87.97C92.8382 87.93 93.6382 88.22 94.2582 88.78V88.79Z" fill="#00A3A0"></path><path d="M110.619 169.79C110.129 166.76 107.629 164.47 104.559 164.46C90.7186 164.4 70.0786 164.4 65.5386 151.15C64.6486 148.55 64.7386 145.77 63.7686 143.22C54.3586 142.86 45.1286 134.76 39.5486 125.41C36.3386 120.03 35.1986 113.78 35.9286 107.36C36.5286 102.11 36.0786 98.45 37.1786 93.19C43.2286 64.26 67.8886 48.41 95.2586 40.6C97.5886 39.94 101.469 41.9 103.719 41.54C105.069 41.32 106.699 39.87 108.099 39.32C121.609 34.04 141.669 35.1 154.719 42C156.229 42.8 161.659 46.9 162.509 47.04C163.429 47.19 165.579 46.55 167.099 46.66C183.009 47.78 195.329 58.17 202.359 73.26C203.929 76.62 205.069 81.61 206.639 84.54C207.329 85.83 208.609 86.23 209.369 87.17C218.789 98.79 217.679 116.94 211.889 131.29C210.849 133.88 207.279 139.35 207.029 141.46C206.859 142.9 208.049 145 208.349 146.64C211.929 165.86 208.979 167.32 198.169 179.27C196.619 180.99 195.109 182.5 194.239 184.81C191.049 193.21 190.009 199.04 187.609 206.87C184.989 215.38 174.369 215.8 169.779 208.53C164.609 200.35 161.339 186.1 152.389 181.63C147.559 179.22 144.979 180.9 140.399 180.81C127.819 180.57 112.389 180.59 110.629 169.81V169.79H110.619Z" stroke="#505071" stroke-width="3.97" stroke-linecap="round" stroke-linejoin="round"></path></g><defs><clipPath id="clip0_4908_7622"><rect width="185.99" height="181.62" fill="white" transform="translate(32.3384 34)"></rect></clipPath></defs></svg> 